<mxfile host="Electron" modified="2023-12-30T21:25:16.405Z" agent="Mozilla/5.0 (Windows NT 10.0; Win64; x64) AppleWebKit/537.36 (KHTML, like Gecko) draw.io/21.7.5 Chrome/114.0.5735.289 Electron/25.8.1 Safari/537.36" etag="ucZjzgeGgBQDq95IAiQI" version="21.7.5" type="device">
  <diagram name="Page-1" id="RBe4kKmWxrb9Rina0VuJ">
    <mxGraphModel dx="2245" dy="1989" grid="1" gridSize="10" guides="1" tooltips="1" connect="1" arrows="1" fold="1" page="1" pageScale="1" pageWidth="827" pageHeight="1169" background="none" math="0" shadow="1">
      <root>
        <mxCell id="0" />
        <mxCell id="1" parent="0" />
        <mxCell id="Mw_88Z8rka56BvABdyxa-1" value="" style="endArrow=none;html=1;rounded=0;strokeWidth=2;shadow=0;shape=link;" parent="1" edge="1">
          <mxGeometry width="50" height="50" relative="1" as="geometry">
            <mxPoint y="-1120" as="sourcePoint" />
            <mxPoint x="827" y="-1120" as="targetPoint" />
          </mxGeometry>
        </mxCell>
        <mxCell id="Mw_88Z8rka56BvABdyxa-2" value="&lt;span&gt;&lt;font style=&quot;font-size: 20px;&quot;&gt;Step Up Support&lt;/font&gt;&lt;/span&gt;" style="text;align=left;html=1;verticalAlign=middle;rounded=0;shadow=0;glass=0;labelBorderColor=none;labelBackgroundColor=none;whiteSpace=wrap;fontStyle=1" parent="1" vertex="1">
          <mxGeometry x="6" y="-1155" width="328" height="30" as="geometry" />
        </mxCell>
        <mxCell id="Mw_88Z8rka56BvABdyxa-4" value="&lt;span&gt;&lt;font style=&quot;font-size: 20px;&quot;&gt;Sun Flower&lt;/font&gt;&lt;/span&gt;" style="text;align=right;html=1;verticalAlign=middle;rounded=0;shadow=0;glass=0;labelBorderColor=none;labelBackgroundColor=none;whiteSpace=wrap;fontStyle=1" parent="1" vertex="1">
          <mxGeometry x="690" y="-1155" width="131.81" height="30" as="geometry" />
        </mxCell>
        <mxCell id="Mw_88Z8rka56BvABdyxa-8" value="" style="endArrow=none;html=1;rounded=0;strokeWidth=2;shadow=0;shape=link;endSize=6;startSize=6;" parent="1" edge="1">
          <mxGeometry width="50" height="50" relative="1" as="geometry">
            <mxPoint y="-50" as="sourcePoint" />
            <mxPoint x="827" y="-50" as="targetPoint" />
          </mxGeometry>
        </mxCell>
        <mxCell id="Mw_88Z8rka56BvABdyxa-9" value="&lt;div style=&quot;&quot;&gt;Case Height : 18 mm | Case / Cap / Case Support Side Fillet : 1.5 mm&lt;span style=&quot;background-color: initial;&quot;&gt;&lt;br&gt;&lt;/span&gt;&lt;/div&gt;&lt;div style=&quot;&quot;&gt;Jack (1) Height : 11.6 mm | Cap (2) Lenght : 53.2 mm | Case Support (3) Fillet : 7 mm&lt;/div&gt;" style="text;strokeColor=none;align=left;fillColor=none;html=1;verticalAlign=middle;whiteSpace=wrap;rounded=0;" parent="1" vertex="1">
          <mxGeometry x="4" y="-40" width="466" height="30" as="geometry" />
        </mxCell>
        <mxCell id="Mw_88Z8rka56BvABdyxa-12" value="&lt;div style=&quot;&quot;&gt;&lt;span style=&quot;background-color: initial;&quot;&gt;&lt;br&gt;&lt;/span&gt;&lt;/div&gt;&lt;div style=&quot;&quot;&gt;The Case has additional back holes for cable management&amp;nbsp;&lt;span style=&quot;background-color: initial;&quot;&gt;&lt;br&gt;&lt;/span&gt;&lt;/div&gt;&lt;div style=&quot;&quot;&gt;emergencies. The holes are not necessarily needed.&lt;/div&gt;&lt;div style=&quot;&quot;&gt;&lt;span style=&quot;background-color: initial;&quot;&gt;&amp;nbsp;&lt;/span&gt;&lt;/div&gt;" style="text;strokeColor=none;align=left;fillColor=none;html=1;verticalAlign=middle;whiteSpace=wrap;rounded=0;" parent="1" vertex="1">
          <mxGeometry x="484" y="-40" width="346" height="30" as="geometry" />
        </mxCell>
        <mxCell id="Mw_88Z8rka56BvABdyxa-13" value="" style="endArrow=none;html=1;rounded=0;strokeWidth=1;" parent="1" edge="1">
          <mxGeometry width="50" height="50" relative="1" as="geometry">
            <mxPoint x="475" y="-4" as="sourcePoint" />
            <mxPoint x="475" y="-42" as="targetPoint" />
          </mxGeometry>
        </mxCell>
        <mxCell id="Mw_88Z8rka56BvABdyxa-16" value="" style="shape=image;verticalLabelPosition=bottom;verticalAlign=top;imageAspect=0;image=data:image/png,iVBORw0KGgoAAAANSUhEUgAAAO8AAAC3CAYAAAD6rQkjAAAACXBIWXMAAC4jAAAuIwF4pT92AAAF8WlUWHRYTUw6Y29tLmFkb2JlLnhtcAAAAAAAPD94cGFja2V0IGJlZ2luPSLvu78iIGlkPSJXNU0wTXBDZWhpSHpyZVN6TlRjemtjOWQiPz4gPHg6eG1wbWV0YSB4bWxuczp4PSJhZG9iZTpuczptZXRhLyIgeDp4bXB0az0iQWRvYmUgWE1QIENvcmUgNi4wLWMwMDUgNzkuMTY0NTkwLCAyMDIwLzEyLzA5LTExOjU3OjQ0ICAgICAgICAiPiA8cmRmOlJERiB4bWxuczpyZGY9Imh0dHA6Ly93d3cudzMub3JnLzE5OTkvMDIvMjItcmRmLXN5bnRheC1ucyMiPiA8cmRmOkRlc2NyaXB0aW9uIHJkZjphYm91dD0iIiB4bWxuczp4bXA9Imh0dHA6Ly9ucy5hZG9iZS5jb20veGFwLzEuMC8iIHhtbG5zOnhtcE1NPSJodHRwOi8vbnMuYWRvYmUuY29tL3hhcC8xLjAvbW0vIiB4bWxuczpzdEV2dD0iaHR0cDovL25zLmFkb2JlLmNvbS94YXAvMS4wL3NUeXBlL1Jlc291cmNlRXZlbnQjIiB4bWxuczpkYz0iaHR0cDovL3B1cmwub3JnL2RjL2VsZW1lbnRzLzEuMS8iIHhtbG5zOnBob3Rvc2hvcD0iaHR0cDovL25zLmFkb2JlLmNvbS9waG90b3Nob3AvMS4wLyIgeG1wOkNyZWF0b3JUb29sPSJBZG9iZSBQaG90b3Nob3AgMjIuMSAoV2luZG93cykiIHhtcDpDcmVhdGVEYXRlPSIyMDIzLTA1LTExVDE5OjQ1OjM0KzAzOjAwIiB4bXA6TWV0YWRhdGFEYXRlPSIyMDIzLTA1LTExVDE5OjQ1OjM0KzAzOjAwIiB4bXA6TW9kaWZ5RGF0ZT0iMjAyMy0wNS0xMVQxOTo0NTozNCswMzowMCIgeG1wTU06SW5zdGFuY2VJRD0ieG1wLmlpZDplODQ5MDM1MS0xYmYzLWU5NDctYjk2Mi0yNjJjZmY4N2QyODEiIHhtcE1NOkRvY3VtZW50SUQ9ImFkb2JlOmRvY2lkOnBob3Rvc2hvcDpiODE5Y2M1Zi1mNDQxLTkwNDctOTlkYy0yOWMwNzJlYjVlMzQiIHhtcE1NOk9yaWdpbmFsRG9jdW1lbnRJRD0ieG1wLmRpZDo5NmNmM2JkNy1iNzJjLTUyNGQtOGRiZC04MGNmMmNiZDA5MWEiIGRjOmZvcm1hdD0iaW1hZ2UvcG5nIiBwaG90b3Nob3A6Q29sb3JNb2RlPSIzIiBwaG90b3Nob3A6SUNDUHJvZmlsZT0ic1JHQiBJRUM2MTk2Ni0yLjEiPiA8eG1wTU06SGlzdG9yeT4gPHJkZjpTZXE+IDxyZGY6bGkgc3RFdnQ6YWN0aW9uPSJjcmVhdGVkIiBzdEV2dDppbnN0YW5jZUlEPSJ4bXAuaWlkOjk2Y2YzYmQ3LWI3MmMtNTI0ZC04ZGJkLTgwY2YyY2JkMDkxYSIgc3RFdnQ6d2hlbj0iMjAyMy0wNS0xMVQxOTo0NTozNCswMzowMCIgc3RFdnQ6c29mdHdhcmVBZ2VudD0iQWRvYmUgUGhvdG9zaG9wIDIyLjEgKFdpbmRvd3MpIi8+IDxyZGY6bGkgc3RFdnQ6YWN0aW9uPSJzYXZlZCIgc3RFdnQ6aW5zdGFuY2VJRD0ieG1wLmlpZDplODQ5MDM1MS0xYmYzLWU5NDctYjk2Mi0yNjJjZmY4N2QyODEiIHN0RXZ0OndoZW49IjIwMjMtMDUtMTFUMTk6NDU6MzQrMDM6MDAiIHN0RXZ0OnNvZnR3YXJlQWdlbnQ9IkFkb2JlIFBob3Rvc2hvcCAyMi4xIChXaW5kb3dzKSIgc3RFdnQ6Y2hhbmdlZD0iLyIvPiA8L3JkZjpTZXE+IDwveG1wTU06SGlzdG9yeT4gPC9yZGY6RGVzY3JpcHRpb24+IDwvcmRmOlJERj4gPC94OnhtcG1ldGE+IDw/eHBhY2tldCBlbmQ9InIiPz6GNQXxAAAn8UlEQVR4nO2deZxcVZn3v7e7ekt30tkDhCRA2AKEsIQo8IKAgCOL6Os2yoyKIyjO6MwoijqIzvjiMoL7BgQFdByVURRFQcc4wiCb7GEVyIIJBLOSTjrpper943dP33Nv36q63V1V91bV+X0+9Um6q6rr1jn3d579ebxCoYCDQ6Xged4CoAVY5e6t6qIl7QtwaDj0ANOA1rQvpNHhyOtQMXie1wrsDRwI9KZ8OQ0PR16HSqIbEfdooC3la2l45NK+AIfGgOd5APOBlwEzAS/VC2oCOPI6VAptwCIkdftwWl3V4RbYoVKYDiwD9gDagcF0L6fx4cjrUCnMBY4FJiHiDqV7OY0PR16HCcOTwXsIcDAyxfqBgVQvqgngyOtQCXQB/weFh/LAizjJW3U48jpMCL6XeX+kMrcilflpHHmrDkdeh0rgFcBC//87gHuB4fQupzngyOswUcwAzkCOKg+pzHelekVNAkdeh3HDV5lPBJYi4g4BDwDPu6KE6iNTSRr+zWCjE9gLqWSzUPpdG7KtPKSaDQE7gS3AOmA1sBUYuXvcjVRZWPs0FXgrivECbAduwqnMNUFq5I0QtQPFCRch58d8YIH/u1nAZOTRbCUgrkEBOUl2o8yeF4H1wFrkOHnM87yHgE3IE6o3OUJXAqcBpyANroDW+7ZUr6iJUFPyWoRtRZk4h6J0uiP9/++JSsrMdSXNj+3w3zcDkd4w00jlF4CngD8CdwD3e563FSg4Eo8bc4G/Q+V/ALuAH6HD06EG8Gpx8/qk9VDC+uHAychDeTDa/Baqn8heQOpcH7AKkfjnyLmyHUfkRPD3sgO4GPgI0ogAHkeOq9XgNJtaoGrkjajFc4HTgTcBRyEJOZZi7QKBNLX/9fxHi/X7pIdAHoU1HgduQbbaw0Ryct1NGIa/rycAy1H5H0i7uQT4MpB3a1YbVJS8EcJ2Ixv2HOD/AvuhE7sUuQxJjQ27A9iMnFFb/Z/7/OdAB0A3UpmnIsfJNP/nTqR+J1HBB4HnEYmvBe7DT+9zN6Jg7e0M4GrgNWj988AfgDci88StWY1QDfJ2AYuBvwZeC8yjtG2dR2TcBjwLrASeANYgx9OLyNm0g+JZOx6KM04D5iB7em+klh8KHIBuuq4E17IFOV2uB273f256aWKpyx8APk6gLm8G3gbcDI64tURFyOtvbCuStG/1H3tTXDUeRsnrq4C70cm9EhF2C5UrJ2tF+bamNcsxKAf3QGAKInJcrDuPJP3/AN8Bfo8kftPaxZ7ntQPnAZ8hcFINIPX5IrSfjrw1xITIa6lSc5B6/H5EjLgWKAUkYf+MSHEL8CBSV/ux4rKj3pjwGmPixFG0IafZgSi54FSkJUwmXiIPI6n/K3ST3oUl/ZvhRrXW9HTgm8j8AR1wDwLnIk0JaI41yQrGTN4IQbpQds37kKexO+YtBUTOlSiU8GvkkewjhrDV2PwipM4hIi8BzkQ353xkK0ffMAw8B/wHUqefAYab4Ub1PK8FeBVwBXAQgaayHu37TcBQM6xF1jAR8k5FTooPo9M4qn7mUezvbuB7SPVch6Rv6ENrtfElJHMHsC9KOngzksbdjFb7dwOPAV9HN+3GRtWjrbU6AfgSisWbX/Yhu/dq5ItwEjcFjIm8Vrx2EfDPyLadFHlZAdlC96LN/R1SjUPOpqxsdoTQrSgd83ikDh6PbGb7YCqguPAtwL+hUFMesvOdJoLIeixBB9WxBGuwC/kBPob8Ag3xvesRicgb2dAjkNPilYy2bfPICfVN4KcoRXHE+ZTFTS4hjacBxyEnzclI07BJPIwOpatRfHObeSKL3zMpLOfjqcDlyFtvFmkQ+DHStp4z76nn71vXKBQKZR8+upBT6hF04xasRx4F6m9A0qqbmLhqks9K61EC0/3v/UvgJf+72t99N3JkvY7IYZb2dxrn9/eQ/b8y8j0HgF8g86KlXr9nIz2SbmgHyo5aHXPzDiMJexHKTR4VHkr7S455UeIxB7gAuJ/AbrcPry3Itj/crEHa32Mc33kK8EFgQ2SfB9DhdYhN3LSvudkfSTZ0EvBOpCbZG5pHatQK4CSU1VTXpC3y/W20Io/rZ9BBNhgh8RAyG/4VVUNleh0iWAR8myAKYPa4H6nKBxE5mNO+/mZ/lNvUduAtyLaLSpp+4PvIM9vR6JsaQRdy4lyH4sBRM2I38rK/Jctr46MbmQUmhm1/jx3ANaieujWL36GZH7EOK8uJcyJKTjgg8pI+4ErgKyj8Eyq+jvubjYAY51YvCi+9D2VvdVnPGa/0b4HPA/fgr1Pa62M5pRYD5yOTaKb1kjxKe/wCcshthPSv2yGMUeS1wkEHoFP3eALnUwE5bS5DyQp/oYHCJOVQxDPtoaqpdyDzIprLPYxu/p8jMjxJCk0BYqq83oCIa9Rh84IhVFT/aXTN2/Dj8s2wx/WEYuTdF0mL1xE4KArIo/zvwNeQg6ZpNzWGyO2o3PHdwFmMnlE7jIosfovipLdTgzBa5DpnoGyp89FoEjtGbzLhbkWH8yO4yqpMI0Ref6MnAR8CPkrYXtsJfA6pyy/iekQBsSSegsyNC1F2Ujfh0EoeSeIViMS/o8Ikjrmm2aiE7+0oTh91Lg4h8+cLwH8ijWoEzby/WUYceU9AObzzrNcNIufMx/B7QbkNDaMEYd6FwkfRnOk8sokfBX6G0i3/hOU/GMsax3z+JJRk8kaUZDKfiPPMv4aXUL7511Ad887xfL5D9WEJ1xnA+hHy+k9MB74FvJ5AWuSBO1GM8wmayMYdDyIk8oB9UDOCt6FqpmhDggI6HDej9b0flUjeg6ThKPu4RKHFIhS2OxYdGAvQZkfTO40JdC/SpFYQadBnf55DerD2uhvtaS+6Lx7xCoWC7aR6PfIuTvXfUEAq8gWoLG4Q3KaWQhFitSI/wjmoScHBjCaVwTAKNW1CsfVVqEPFNv/3w2ivOv3HbIJum3MI2uPGXcgwCv88hFT236Aw4LikvUN1YN1DLagW/eXIR7EA+F9k2rxok3cuUo1PIdj4AZSQ8EUaJHe3loghcgsqfDgZqbPHIMdWu3lLzJ+JxtexXttCssb5RrLfA/wAdQpZH/l7+jC3t6nDum9ejcKQS9BBvcb/+Y+FQmG3CWm0ICfLMYTDQisRy7eD29ixwjoYDfKoGcF3URhmMdqgU5Bk7kVS0yakabIHyZv25dHBux1J7hXIrr3P/92ojXR7my6s+2QmighcgKIX3Wi/tqCkKJOeOxKPnINU5sn+zyZL6Cq0+c5BNU7EOAQNtqJw0e0olfJwpB69HMXYp6Okj3aCOKxHfBfNYUTWnciTbXpU3406Yo6yZ6PX5lB7RO6HKchf8V7kaOwhOLR3Aj9EmnH/iO/Df/KVyMM8x/+5gOyi16OmcG6jq4Ai9nE7MmEORE0OFiBVeyoisyGxmRCxDanAa9BePY1CPbspAreX6aFIfsBxKCpxBkF/MBAP+5DE/RTa54LZP9MadRlyPxsMofKv58BtdiXhb14vaoS3CbinUCjkrU0dQNrOqkp+rtvDzMEDDkP14m9BjsdoVGAjqhX/FrpXQjB9nI4mbE9tJ5I84FAxdKBQzj8jG/QRYEeRTLdxwRE1GyixhwsQYf/O/3+0qcUQui8+hTq29Jsn7L3NoTDDIsKOqlUoB9fdCJXHDJR2eiRKkOjA7wNlw617Q2IW2vsLUYeSKGmNmnwjkriPUsL8MeTdy/pdHtm7bmBUdbAQEbcTxW+LNZJ3aAzkUCThTNQXbVQJLUEt+GOo2d/NKLRXMv6eQ7q2Xco2jJqqDWbl9Pc8rwMlNmwB1mblusaJ+f7DQwkSRU9Wh/pCRE1uQSnGZ6OKs0OJH/eTR4Lye6iK7xkSmqs5FJKw7d3d6KbKBPy+wUuQjXAr8rjVpbTyPK8NEbcbdWH8M37ljkNDYS4i7TuRpO2MeY1RkX+L6uLvQ2ZU8IIyQiqH0vTs02AAv6VnRrAnshNOQskG4/fkpI8egnrfPqQ2Z1KNsKTIHihs1Yvix6uQVpbJ664FijiiOpHz6WyUAnso8aQFcexx4KvIIbWBcUziyDE6D9YM/kodnud1oRjYqehmf4j69oDPQKdyK5K8GzPMgRyKLX8YFe53oRvuMpRfO8rJ1qToQPH4s5B2eChBumsUJsPuepS5uArLkzxW5Pw/aHuaAVrSvqn8020/VJEzl6COuJ4xBYXmPHT6bk73ckqiBxVSvJfAwXI8ynU/Dx2kDY8S4R7jiHoDqhjbn+ITKAtIm/0Zsmsf9X+eUDOLHGH70fN/1+l5XtrhijnA36Cc683IA7cr7UNlgphEUAg/iFXskUH0IBXQ9oy2oMSCJTQJeWMwGbUOeiPKQFxA6bGx/cAdwDdQae1GKuSzySH1LU/gtGolpo1rLeF5Xic65c9GttYNyAtX7+gk8Oyb0r+sooMgXdZGDnn+mw2TkEr8JkTa+ZQuFBlEZsaVqJx2PdK2KiZ9cuj0H7YupBM5idKEaei2ANkI3wNeqnOpC7KFcgQFBln+QrtKPDe9ZldRA5TJZutEkvZvkYpcau40iEtPAdeiFOM1qLCg4m2jcsiO7CcwsltQVUsLMZUo1YS/iD1IJVnmf/730WIMF39n3aCVcIVQVeCv42RU4nkC2uOfooKFpOM4XyLemeJR4/siBZih7IcjJ9TZSAsptm+m1nodqvz5MXJG9VHFtcohcb7Zv1jzu4P8n7dU64OLYCqqrHgHIvEfkGdue42vo1qwa3VzFPdKThTTUd7svyASF5DUuBjVgya5oXZg9bOKYDADPpFqwENrdwyStKf7P5dqeFBAh+JPEHGfQPdr1buTGPKuRp4zg4XAAs/zttRig3xJ0Y4KJP4RqSabUfA6VAZV5zCTFUCne7E44ESxBHg/wYEM8ApU4P0BJBHKoVTIMEcKmtlEkKDQYwqqpX4HKoYvZxqY5n2/QCryQ8iDXLMEohwS9Y8hr67R5Wci4/zBal+Av6idqFHbRSgjJY/iYCtorAwkOyzXhjKtqoHFKO3VRivBqNIk5DUqfhzmIgdOkr+TdUwCXob6bZ+G6mmLMb3gP7cFJVdchziymRTyD3LIrnkInbKmCXcHymi60fO8nVWWeq3IMfUxJB3aUPeHq/HVtgaRuqBT2ahTOcKSsZKwJyDYmI0O5j8n+Bu9BI0Io1gITPM8r69O9yaHKnyOR5L2RIIuMsVgYrW3ouZ9DxFD2lquh4lPPYo29ED/Zw8RaQFyd1cFft7yNKTivQapzhvQtIY11frcFDFAoFa1AVOrZDuOjKGJYBIws9xn+trQ3mj/4zAPaUrPFXm+5khY/9yKDrBTUaLJywhPjYjCLNI24L+RenwfKowfIuVogSHvKtRZcH9ky3hINToeGeAVvUir1WwvssHORSffTtTd8FYyVNVUQQz6Dw8dVDNKv3zceBFpUtHSs1ZEPLsXVhxywFKKhwx7EAHu9zxvVCOBJDBkq9Eee4i0pyG7/2iClkLFYAoHbkGS9gECSZuJG9OkQW5EhLHzVbuA1wIzJtLVoQSmIe/n+5CzYBjlzJo5SI2IfoLNryZ5NxFvj3roQO4us6fTUP1plPwGrcBbUfpqa6m/5Xle9DHd87zFyKNbLbPBoAMJpH9AqYlXofZD0WIcG0Y9vgF4M9IKV6AikpEki2JjN2sJI3kHUerW4yi+CvpyxyHV4pdU6LTxN7oDLcp70CmeR43TLgbWQkPZuTZ2oQPSpKFWK9nhJSR994p57pVIq3qKyJ5aJDwExYdLYV/kYPwEsNbzvKiaPhXlCxyOVOwpaK+7kYP0J1TP4dWONIxz0CGzmPJhuQISGr9E4UnjPc6sw9TOyVyL8oeXEJy4vSi/+C7P8zZNhFDWjTEHOafehU7AAqof/ijqE1034YdxYAdB4kMLQZFCpU+qXUhSxGEuqoC5yvO87TF7uifqr1VOK2hFCQzzkT3Yh+6bWYisC/3PmkzQ6HAIqZ43oE6XY0q8SaABtiHSvh4NVYuOL41DHpH0ZmTTPoxs3NRt2rKIiPul6FTME6TvbUOnV9t4J3hbmIM64e2wPmMrIu6I46Bak8TTfiBi3Oh/90F0wrdU4XNmoBvR3kf7sQbFNKMJ9bOBSxH5o+8ZKPK38tb3GSrxmQWUvPDZ8e51EXhIoh+JKp7+REC8Uo8hZC4uR87ZWUg6h4ie9j1Tcj0iCzMZ+CRydpgvOYwynfaf4GIvQ7aDsfnyiMRfJBKSSHtRqrbYusm+43/3YTQZsBrk7QS+XuLGzaORJ0cS5FrPQwO1d8S8foBAzS1HimKft92/ppnj3eMYTELOp8uR0zUpaZ9HVT4nIdOlaFVQ2vdMyfWIWZwjkepgTtA8Ook/geVgGMNiT0WxtMcJMowK/t/8NpZ6lvZiVH2xdZN8yVrX24DWKnyOhw7FUlJwyN+TL/uPPxIvXc2UyGXANwkf7EmJux7NfJ41kb220Ils6X9H2YFJSfssmjG9DDnlSpXyZf6ejFucLuRIMjNtzAZsRZ7hrnJfykcLGuR8FUHhsXn0o0qhkVBE2gtRk8UWqf6V4BB7EOiuwueABmUnJVep59chx89kFPf9LHLslPubRtreimzsXiyVtMg1l0IrOuhPRFJzPWFhUOwxgJxzH0eEn0oC0ha7ziw9ii3gTFQZEV2cdchJ0RX9chHshYi+kvCpmEfEvZagg2LmF6nCpPoQMh2Mh31hlT7nCkYTsxxRo48NSGsyKYOt/v9fi7yym5AGNeR/pwGkdq9Bh7MpoQt5ektccxxakGr7Kv9vbiQZaYdQ7/FLkRO2lyLpnmnfF+N95KJfwvfobUZ2xEJ0WhmS7YnisEehooF1VohgMgoNnIpO6iMIB8ILKIRxHVJ31vu/K7d5jYYd6MYyzf/mUZ1GA9EbtYBu+iRSJ4+ypz6Ophm+ZL1/C0pcuAd5lRcR9OV6Aamxq1GW10tYoZZx7LOp8DmP8nnHBoPIafVddMCsRmveCCWlIRTbyDyamv4JpKLsSVDLOB34J1Rz+zAiYQ7dhAcjj3LUa2d6034aDTTbDE1HWoNt6AbrJBgqVmm0M3oPPESoJxEh4hIVjGZ0G7LN7ySIDNjYhfZ9PXJmRnugjcIY97rHv8bzkcRNQtoBlAV1LWqn+jzK2GvY0OMo8ppF9jxvCM10vRTNTNkz8r4FSPW1EbfAZlE/g7zNjVKbO170IYJMRnHRuVXIb+5Fpk+B8J5sAi5BEvNspE5O81+3CeXt3uT/+wJ+N424a4vEXEe9IPqeBDFaMwDg5UjSnohIXK6Wtt+/3qtRhp5pLjFC2kYVEuVUqH7UyaIfkXh/wupYqRSzPLoBfoA65j2NVYHRqAuaAFsJEjXaiO8TNVFMQ57d6P5sRPtwL3IkzUCZTwWkEZi0yrJZRRXcv1a0Bq9ApD2e0sUCEJD2bmSG3Ybs835KSP9GQ8n4ln9a9qMY31o0IMnYHtHMFbNoA+j0s0unRnKmm5i0Zk23EWgfrfhxzwrD9Ie2kUf233a0Rxv9R1FUea88dMCcgrp+HEv5+mYTtrwdqcd3oHutoo3d6gUlJa9F4F1ooR5HWVino8WejVS/PDqxn0V20gqUqVXVHj51ii3I5i8QeFITw9+P+ejGfxFYVygU8pHn5zK6GL+ASj/Tbp9rulKejDzZyygvac39Zcry7kdagok5NyUSBan9G8LYRbei2b3TkNSYjBZxKzH2hvkbDiPYhlQ84wCcxthaysxDueFHowPy857nrbSe70S9laPF5f1o5mvFD9OEVWdtKIR4MpK0S4kfvGWjgA66XyHvsSkWCLXnadb7K1Gw2nJimV8NoBtwQ7n3xMHzvFa0mbuSvL7B0Ed48sMUVJS/OeEaLEWhuD1Qq6Ih4IPopvaQX+IcRjt61iDNqNbIoVjv6UjSHkVMDnEEw4i0P0ex3UeRxpL9YoEaInGmCVSUYCbkBIH60ywwCfF5RLAeJJGSjj5pI9i3TlQ00oVi55uQVDsk8p48UjmLVRpVAy0oQvFqVAC/hPJleXkUzroRhRSfJAitOdJGMCbyVhBD6EbqIbDdMls3WQVsRdKlBRFvHspGS4KVKAl/BjoEO1HM/VjkGDyQ8MT1ApJaNwHj6noxRnSi73MGmuFj5tKWQh5pcTei6MTjBKR1KIK0yAtB68xmPFX70PduQzd7XNF8MaxCobeDCezaHIrdxmEYhfseorrOw3bkSDsT9TwuNeISgnDiGuCHKB33GWrU87gRkCZ5DcY94rCOsRXZ+5PQTT8W8vajYvbjUZuWUqpoHmVALWecM5fHUAB/FrJpDyMoM4yDSbN8FsVob0JhyIZMYawmUiGvO03ZhlL3phMkKYwFW1DW225UKBKX6jiI4qH/QnXGxbQQSNoLkCZQ6iAxpH0GOaF+hki7HRdOHBeyIHmbCn7obStBosZ4elkVUKbUJ5F9eC5qBteGCPICsh+vQ4kZu81nVwCdqH/VOchZdhDJSPu0fz03+9e0EydpJwRH3nSwmcC73MIYukhaYTtTonkVqp7ZHx0CLyFyPEfQi6kSxO1A+exno75miyjtiDJleStR04UVyL5tirzjWsCRNx1sIRzrnYqk5ni8q32ot/YTxV5QjCBjSK7YB9m0b0dhqFI2LShycD+ytX+PKnxGJe84TAyOvOlgO7qhTdVPD5K+ieOwNZBYrSi54rWoNC8agorDLlQmeg1BWV5TFQvUEo686WAQJVTkEUm6gXme572QETVyb2TTnk8ySWtIuxylzq4j6EDpUCU48qaHrQTkHWustxroICDt36A4bTlH1G7UuG45TVqWlyYcedNDH+F2ONXoqJEEppvHGaiedjFSj0tJ2n4UP74GuIsipM2IFtGwcORND6a/UxciS8XnFpVxSJmhY2eifOjDKG/T7kCF/MtR14oNNHlZXppw5E0PLyFp1Usw+qRW2IsgueJwyqvHu1DXiuUo8WMDTVoAnyU48qYAP1FjO8GgLdNStdqYCfwV6st9NKVzj0GJFHeh/lB3ovCWc0RlBI686WEbAXlNUX410IZK80wR/DGULoI3/aF+j2YpxZLW2bPpw5E3PZh2OBDU9SZGggQLkzN9KiLtMspX+ewkKGS4E9XWOps2o3DkTQ/bUazXYAqyPStR1zwbtU69AA2T7ir98hHSXuP/62zaOoAjb3roQx01TJbVJJSbPJFuF71ILX4PGqLdS7x6bEjZT2DTOtLWGRx508MQUp0NulBXkfGQtwuNlzkfFQ6YsFOUuDZpb0eS9h5E2mbsJ1bXcORNF30E84PasUZgJiwaaEe9oc5DQ71mUHrCwA4kYb/t//sXLNI61BccedPFboJKm3aSe5xbUPH7O1DLmVkUmYBH4D2+C0naO5B0d+pxncORN13YZXKtqDSwFDrR5Ma/RgX48ylOWpBUvRfZtLfh4rQNBUfedGFm24JIOKXI69pRIfwZwDtRpU903IyByYj6Ixo3Y+ppR0jrbNrGgCNvSvCzrPoJyJsDeiITA1tR0cDpyBl1JMXL84x6bIrgb0PqcTM2+GsKOPKmBGsGlCHvSKKG/9x0lBX1bkpPzisg+/Uh5Ij6DaqndTZtg8ORN11EydvtP5YC70JqcqnmdAOoAd01aIbUczibtmngyJsuBggyqjxUDH8p6sq4F8XDPoNofs+1BKTdiSNtU8GRN10MEkheD82qPQuRNs6uHUSN5q5HHSNNs3JXMNCEcOStIhIkWkwiyDtuZfRYTgjGgpgJAz9DI0+cpG1yOPKmgx7g5cDFlJ6WYBqofxfN8/kTroWqgw9H3tqiHbWbeTuaMzSLeLvWjLr8CcF8WjcWxCEER97awEPjSN6Ekiz2o7gzaiPwC2TXPoJqft2EAYdRcOStPmYiR9Q/otYzpUaEbERtVx9ApB0q8VqHJocj7wRRwinVBRwF/D2aDh9XW1vwHy3+v6vRTB83VNqhLBx5K49WNBrkXDQZfi4irU1ckxW1ChUb7OP/fghHXIeEcOStLGYDrwEuJGhebsNMzluNEixWAh9H5PXw7WBn1zokgSNvZdCDGrxdCLzK/zmqIg+jkrwfonjtU8AB/utMK5xShfQODiE48iZECdt2DxT6eS9SkaP1tXmUUHEr8E3gPtRwPY/Iakr7nLh1GBMcecePHtTA/EPIMRVdS2PX3g98A/g16hZpT4Nvsd7nCOwwJjjyjh0tKNHiA2h2bW/keZPOuApV+/wXykGOa+naRvn5QA4OsXDkjaBMPvIs5EW+ENif+OKBLcCNwFUoMyqUg2w7ozzP6yDYA0N6B4dEcORNhk7UvPz9wGnETx4ww7i+glrPbKE8GdsIkja8BK93cBiBI295LEAOqfegIoKoR3gIqchXI0/yepJnRnUSqM0mjOTgkAiOvMXRDbwC+CfgBEYP5yqg6fb/BVyJVOSx9kDuQOQ1mVaOvA6J0bTkLWPbzkYFBP+AJuxFpe0gyj++AvgtMSpywkQLM1jbXIzLrnJIjKYlbxG0o6ZvHwGOY/TQ6TxKtPg2qvpZjRqnjxfdBHHhPG56gcMY4MgbYC6aPvD3BPnIBqYX8m3A5agn8jYmHpftJhzn3TnBv+fQRHDkld15NPBBVP3TSZi4eeSE+gbwA+DPWOrtePOQfbW9i0DyDqPMKweHRGga8haxcbtRgfzFKM84atvuBn4HfAGFgfqoXDinjdFlgtsr9LcdmgBNQ94YHIiypN7C6DEjedRO9Urg+6iJeaU9wZNRT2ZD3ujITweHkmhG8pqEi0vQJIJoIcEulGTxaVREsKNK1zGVcPO5PAo9OTgkQrORdzJKb/wIMI9ATTaG60bgq6hb4zoqYNuWQC+qSDKSdwA1nXNwSISGJW+MjXswgZrcE3luGM2vvRxJ3Up4kstdWy/BBHuQxHfkdUiMhiVvBAcBn0Ozf6LfeRuya78GPE189U81MI2gyboJRb3gumg4JEWjk7cTle19ktHeZOOU+n9oCsEmalsYMIPw5L9tOMnrMAY0BHmLhIH2QA3gPoDSHe0XDaIQ0KdRwsWIU6qGkm8W4aKEv+AcVg5jQEOQNwZ7AB8FziM8/6eAYqnXAl9H83/SKAboQjnTxtNdQGNNXGGCQ2I0Gnk91LXxEtTF0W5wXkB5yZehTKlaq8k2ZgDzCbSBPPJuOzgkRqOR90hkw55G+LsVgAf9535D+plMs1GdsCHvbtQqx8EhMeqWvBE7tw04CUnVowgnXhj79hI0+2ekcidFz+4cpDYb9KMKJQeHxKhb8lrIIeJ+CVhE2DG1G7gB+ASSbFmxKfciHCbahsZ3OjgkRr2TtwM4G/g3lIRhE7cPdW/8MrCGjPSH8jWGeYTt8eeRw8rBITHqirwRVbkdEfdzwL6Mrs65DJF3ZERmRhIgelHnSRNzHgaeoXo51A4NiroibwTHIYLuZ/2ugMh6BbCcZB0ca435hLWEQeAJoJCRw8WhTlCP5G1F84C+iLKmbGxERQc/IWMJD5bWsAAR2KAfNa9zcBgT6oK81o2fQwO9PovqcQ0KSMpeBvyYbHek2I+gfthoCk+mdzkO9Yq6IK+Fg1Ge8mHW7woo4eIS1Dd528gT2VNDpwCHEDS2K6Asr/WpXZFD3aKeyLsQSdZTCDundgCfQVlT22LelyXsDSwh3D3jEWBHBg8ah4wj0+S11OVpqKvjqwjnA+9A/aW+i68qZ5wEC5Gn2WAXmiLo4DBm1MMw5y5U1nc+QWzUjM9cjupwN5Lh8Zj+IdSCkkjMVEGj7j+YzlU51DvqgbxHABcR7n6RB25CLWs2kWHiWpiJcq/tqYBPAmsyri04ZBSZVJstdXkPNLz6IOvpPPAw8CmU8pivk5t/P3QQ2fHdu3CN1h3GiSxL3g5UTP9qwoUGLyCP8xNkJ1e5HFqR1LXju9uBO6gPrcEhg8gyeY8A3k14Fu4uZOP+njoZyuVrEVNRRliX/+sCGgv6cDpX5dAIyJza7N/sk9FM3AXWU3k0ke8/qA/Pso2FwDGEQ0R3IEebg8O4kFXJuxR4HWF1+S+o7G8d9aVq5hBxbZW5DzUFqBd73SGDyCJ5e9G0vtnW7waRxL0XVeHUBXwtYhZKLDHqfx55me9L6bIcGgSZIq9/sy8GTic8zWAt8D2ynbNcDIuQJmF7mX+FU5kdJojM2LyWrfsawjN8jNR9ivorm+tCUtduebMRkbduNAiHbCIz5PWxAN3sdgrk88BPqaN4qBWn3gf4K4J1HgbuBB6DunK4OWQQWVKbPZS0vz+BilkAVlCfUhfUW8vuq7UD+BGua4ZDBZAl8vagRAY7DXIn6vxYN1LXwjzgzQQjTQrASuAPqV2RQ0MhS+TdE0leW2XegLyy9SZycygzbKn1u37kdHsBnMrsMHFkyebdg3BSRgGpy2uhPm52y9Y9CFVBdfs/F1A6569xjiqHCiFLknc24Xm1edTLuN7swy7gTcDh1u/6getQC1oHh4ogS+SdRjiPeRg/m6oepK6FI4FzCVrd5FGDuZ9SP4UUDnWALKnNOUbPz+1L6VrGBEtdngpcSKD+m6mEX8XvU1VnB5FDhpElyesR7k0V/TnraAPeiJJMzKGYR3buL3FS16HCyBJ5dxG+wVuQKp1ZeJ5npG4OeCWqM7ZnEK1G/aU3p3B5Dg2OLJF3C9YEP0SIRUBHZMxJFnEoaj27J9IWTHO8rwMP4NvtTmV2qCSyRN5VhIdttaA46fz4l6cHS+KCmgZcAbyMcL3uj4D/JHwgOThUDFki71pUKmeLJ5Pr3JbKFZXHYWhg90mE85fvBS4HXkznshyaAVki71bU3mbA+l07SnbYJyLtUkHExj0NuIpwL+k8Ssb4KIpRZ2k6oUODIUvkzQO34WdU+TDFCh9BucJZMH5no3DQlUhVtlu5Pofa1N6N8y47VBlZIi9obs+NhJvL5VDSw4eBGZ5Qswsy0tbzvB6kwl+FxqvsS7B+pjvG+1EhxW6QxHVS16Fa8LJ0c/msPAL4FuGGbSB1+sfA59F8nyGojkoaORwmIcfZ3wJnokYB9qE3hOpzLwL+F6VCUq1rc3AwyBp5Qf2azwS+AuxFmMB5lB+8HLgeZS1VxK6MEDaHmqSfipIulqKYs03aApKw/w1cilIgBypxLQ4OSZBF8oKS+9+GpgLOiLysgKTdGuTg+h8US30WhWUKUJxARVRuD9myhyCJvwzZ2nujwyT6pjzqZnk9sn1XY1ULZWlNHRoXmSIvhMg1Hdm6H0Oqahzr8khN3YC8u3/y/78BJUnsQEQ3NnQb8mB3oXK9Xv9vLwAOQGSd4r8u7vMK6IC4G4WCbsdqipe1tXRobGSZvKCuGqej7KXFlC+kyPuPYaTSDiDyDiEytvh/owOR2BRDlHPcGRX5KeA7yKm2johHOWtr6dDYyBx5DSwSdwIHIofRW1HRfrWLFsyiGMm+EmVM3YIywUayprK6fg6Nj3ogL4iok1FG0xuAs1Dct53Kh7uM1H4e9Zu6GXV8XE9M7Dar6+fQ+MgseQ1iSNyDbNRlKO56JJLGXchWbSGQyqZIwPxr/848DFm3owSRB5BN+wByivURaV2T9TVzaA5knrwGRbzEk1A4aQEa5rUQ9UqeiSR1J7JrPQJ7eDdyZG1ChRBrkCq81n9sJJyiOYJ6WSuH5kDdkNdGmQyrHCJtD4FjyrxhAJF3p/8oOya0HtfHoTnw/wFPENxMjzkwhQAAAABJRU5ErkJggg==;opacity=30;" parent="1" vertex="1">
          <mxGeometry x="803" y="-23" width="21.08" height="20" as="geometry" />
        </mxCell>
        <mxCell id="sGpQJkMBHfHeCSqF3O8G-5" value="&lt;div style=&quot;&quot;&gt;Attention : Some components may need additional case &amp;amp; support cutting in order to fit properly!&lt;/div&gt;" style="text;strokeColor=none;align=left;fillColor=none;html=1;verticalAlign=middle;whiteSpace=wrap;rounded=0;" parent="1" vertex="1">
          <mxGeometry x="6" y="-74" width="514" height="20" as="geometry" />
        </mxCell>
        <mxCell id="jZlvbW42aSFdG-7BeMvi-92" value="" style="group" parent="1" vertex="1" connectable="0">
          <mxGeometry x="413.0036267726241" y="-1023.62" width="368.0977124657195" height="259.2600000000001" as="geometry" />
        </mxCell>
        <mxCell id="jZlvbW42aSFdG-7BeMvi-57" value="" style="rounded=1;whiteSpace=wrap;html=1;fillColor=none;strokeWidth=1.5;glass=0;shadow=0;perimeterSpacing=0;arcSize=7;container=0;" parent="jZlvbW42aSFdG-7BeMvi-92" vertex="1">
          <mxGeometry x="66.82571605572423" y="53.620000000000005" width="301.2719964099952" height="142.9" as="geometry" />
        </mxCell>
        <mxCell id="jZlvbW42aSFdG-7BeMvi-60" value="&lt;font style=&quot;font-size: 20px;&quot;&gt;Case Bottom View&lt;br&gt;&lt;/font&gt;" style="text;align=center;html=1;verticalAlign=middle;rounded=0;shadow=0;glass=0;labelBorderColor=none;labelBackgroundColor=none;whiteSpace=wrap;fontStyle=1;container=0;" parent="jZlvbW42aSFdG-7BeMvi-92" vertex="1">
          <mxGeometry x="70.92000000000002" width="291.83" height="38.26" as="geometry" />
        </mxCell>
        <mxCell id="jZlvbW42aSFdG-7BeMvi-61" value="&lt;span style=&quot;font-weight: normal;&quot;&gt;&lt;font style=&quot;font-size: 20px;&quot;&gt;53.2 mm&lt;/font&gt;&lt;/span&gt;" style="text;align=center;html=1;verticalAlign=middle;rounded=0;shadow=0;glass=0;labelBorderColor=none;labelBackgroundColor=none;whiteSpace=wrap;fontStyle=1;container=0;" parent="jZlvbW42aSFdG-7BeMvi-92" vertex="1">
          <mxGeometry x="139.17900562802845" y="220.9985321100918" width="157.9056316811369" height="38.26146788990826" as="geometry" />
        </mxCell>
        <mxCell id="jZlvbW42aSFdG-7BeMvi-62" value="" style="endArrow=classic;startArrow=classic;html=1;rounded=0;movable=1;resizable=1;rotatable=1;deletable=1;editable=1;locked=0;connectable=1;sourcePerimeterSpacing=0;strokeWidth=1.5;" parent="jZlvbW42aSFdG-7BeMvi-92" edge="1">
          <mxGeometry width="50" height="50" relative="1" as="geometry">
            <mxPoint x="67.18503380796727" y="215.99776758409791" as="sourcePoint" />
            <mxPoint x="366.90091657242215" y="215.99776758409791" as="targetPoint" />
          </mxGeometry>
        </mxCell>
        <mxCell id="jZlvbW42aSFdG-7BeMvi-63" value="" style="endArrow=classic;startArrow=classic;html=1;rounded=0;movable=1;resizable=1;rotatable=1;deletable=1;editable=1;locked=0;connectable=1;strokeWidth=1.5;sourcePerimeterSpacing=0;" parent="jZlvbW42aSFdG-7BeMvi-92" edge="1">
          <mxGeometry width="50" height="50" relative="1" as="geometry">
            <mxPoint x="47.17998587126442" y="190.2582" as="sourcePoint" />
            <mxPoint x="47.16558577584067" y="59.879999999999995" as="targetPoint" />
          </mxGeometry>
        </mxCell>
        <mxCell id="jZlvbW42aSFdG-7BeMvi-64" value="&lt;span style=&quot;font-weight: normal;&quot;&gt;&lt;font style=&quot;font-size: 20px;&quot;&gt;21.2 mm&lt;/font&gt;&lt;/span&gt;" style="text;align=center;html=1;verticalAlign=middle;rounded=0;shadow=0;glass=0;labelBorderColor=none;labelBackgroundColor=none;whiteSpace=wrap;fontStyle=1;direction=east;rotation=-90;container=0;" parent="jZlvbW42aSFdG-7BeMvi-92" vertex="1">
          <mxGeometry x="-59.8220818956143" y="102.19966360856267" width="157.9056316811369" height="38.26146788990826" as="geometry" />
        </mxCell>
        <mxCell id="jZlvbW42aSFdG-7BeMvi-65" value="" style="ellipse;whiteSpace=wrap;html=1;aspect=fixed;strokeWidth=1.5;fillColor=none;container=0;dashed=1;dashPattern=1 1;" parent="jZlvbW42aSFdG-7BeMvi-92" vertex="1">
          <mxGeometry x="339.16637322737597" y="73.62" width="12.66" height="12.66" as="geometry" />
        </mxCell>
        <mxCell id="jZlvbW42aSFdG-7BeMvi-70" value="" style="ellipse;whiteSpace=wrap;html=1;aspect=fixed;strokeWidth=1.5;fillColor=none;container=0;dashed=1;dashPattern=1 1;" parent="jZlvbW42aSFdG-7BeMvi-92" vertex="1">
          <mxGeometry x="339.16637322737597" y="161.62" width="12.66" height="12.66" as="geometry" />
        </mxCell>
        <mxCell id="jZlvbW42aSFdG-7BeMvi-71" value="" style="ellipse;whiteSpace=wrap;html=1;aspect=fixed;strokeWidth=1.5;fillColor=none;container=0;dashed=1;dashPattern=1 1;" parent="jZlvbW42aSFdG-7BeMvi-92" vertex="1">
          <mxGeometry x="158.34637322737592" y="73.62" width="12.66" height="12.66" as="geometry" />
        </mxCell>
        <mxCell id="jZlvbW42aSFdG-7BeMvi-72" value="" style="ellipse;whiteSpace=wrap;html=1;aspect=fixed;strokeWidth=1.5;fillColor=none;container=0;dashed=1;dashPattern=1 1;" parent="jZlvbW42aSFdG-7BeMvi-92" vertex="1">
          <mxGeometry x="158.34637322737592" y="161.62" width="12.66" height="12.66" as="geometry" />
        </mxCell>
        <mxCell id="jZlvbW42aSFdG-7BeMvi-78" value="" style="ellipse;whiteSpace=wrap;html=1;aspect=fixed;fontColor=#000000;fillColor=#000000;container=0;" parent="jZlvbW42aSFdG-7BeMvi-92" vertex="1">
          <mxGeometry x="344.2402430637636" y="78.68938837920496" width="2.5105769738052994" height="2.5124900372854664" as="geometry" />
        </mxCell>
        <mxCell id="jZlvbW42aSFdG-7BeMvi-79" value="" style="ellipse;whiteSpace=wrap;html=1;aspect=fixed;fontColor=#000000;fillColor=#000000;container=0;" parent="jZlvbW42aSFdG-7BeMvi-92" vertex="1">
          <mxGeometry x="163.42024306376356" y="78.68938837920496" width="2.5105769738052994" height="2.5124900372854664" as="geometry" />
        </mxCell>
        <mxCell id="jZlvbW42aSFdG-7BeMvi-80" value="" style="ellipse;whiteSpace=wrap;html=1;aspect=fixed;fontColor=#000000;fillColor=#000000;container=0;" parent="jZlvbW42aSFdG-7BeMvi-92" vertex="1">
          <mxGeometry x="344.2402430637636" y="166.68938837920496" width="2.5105769738052994" height="2.5124900372854664" as="geometry" />
        </mxCell>
        <mxCell id="jZlvbW42aSFdG-7BeMvi-81" value="" style="ellipse;whiteSpace=wrap;html=1;aspect=fixed;fontColor=#000000;fillColor=#000000;container=0;" parent="jZlvbW42aSFdG-7BeMvi-92" vertex="1">
          <mxGeometry x="163.42024306376356" y="166.68938837920496" width="2.5105769738052994" height="2.5124900372854664" as="geometry" />
        </mxCell>
        <mxCell id="jZlvbW42aSFdG-7BeMvi-82" value="" style="endArrow=classic;startArrow=classic;html=1;rounded=0;movable=1;resizable=1;rotatable=1;deletable=1;editable=1;locked=0;connectable=1;sourcePerimeterSpacing=0;strokeWidth=1.5;endSize=3;startSize=3;" parent="jZlvbW42aSFdG-7BeMvi-92" edge="1">
          <mxGeometry width="50" height="50" relative="1" as="geometry">
            <mxPoint x="166.9963732273759" y="80.12" as="sourcePoint" />
            <mxPoint x="342.9963732273759" y="80.12" as="targetPoint" />
          </mxGeometry>
        </mxCell>
        <mxCell id="jZlvbW42aSFdG-7BeMvi-85" value="&lt;span style=&quot;font-weight: normal; font-size: 16px;&quot;&gt;&lt;font style=&quot;font-size: 16px;&quot;&gt;33.5 mm&lt;/font&gt;&lt;/span&gt;" style="text;align=center;html=1;verticalAlign=middle;rounded=0;shadow=0;glass=0;labelBorderColor=none;labelBackgroundColor=none;whiteSpace=wrap;fontStyle=1;container=0;fontSize=16;" parent="jZlvbW42aSFdG-7BeMvi-92" vertex="1">
          <mxGeometry x="213.9963732273759" y="88.62" width="73.08" height="13.07" as="geometry" />
        </mxCell>
        <mxCell id="jZlvbW42aSFdG-7BeMvi-86" value="" style="endArrow=classic;startArrow=classic;html=1;rounded=0;movable=1;resizable=1;rotatable=1;deletable=1;editable=1;locked=0;connectable=1;sourcePerimeterSpacing=0;strokeWidth=1.5;endSize=3;startSize=3;" parent="jZlvbW42aSFdG-7BeMvi-92" edge="1">
          <mxGeometry width="50" height="50" relative="1" as="geometry">
            <mxPoint x="164.4963732273759" y="82.62" as="sourcePoint" />
            <mxPoint x="164.4963732273759" y="165.62" as="targetPoint" />
          </mxGeometry>
        </mxCell>
        <mxCell id="jZlvbW42aSFdG-7BeMvi-87" value="&lt;span style=&quot;font-weight: normal; font-size: 16px;&quot;&gt;&lt;font style=&quot;font-size: 16px;&quot;&gt;14.3 mm&lt;/font&gt;&lt;/span&gt;" style="text;align=center;html=1;verticalAlign=middle;rounded=0;shadow=0;glass=0;labelBorderColor=none;labelBackgroundColor=none;whiteSpace=wrap;fontStyle=1;container=0;fontSize=16;rotation=-90;" parent="jZlvbW42aSFdG-7BeMvi-92" vertex="1">
          <mxGeometry x="110.9963732273759" y="118.53999999999996" width="73.08" height="13.07" as="geometry" />
        </mxCell>
        <mxCell id="jZlvbW42aSFdG-7BeMvi-88" value="" style="endArrow=classic;startArrow=classic;html=1;rounded=0;movable=1;resizable=1;rotatable=1;deletable=1;editable=1;locked=0;connectable=1;sourcePerimeterSpacing=0;strokeWidth=1;endSize=3;startSize=3;" parent="jZlvbW42aSFdG-7BeMvi-92" edge="1">
          <mxGeometry width="50" height="50" relative="1" as="geometry">
            <mxPoint x="347.9963732273759" y="168.12" as="sourcePoint" />
            <mxPoint x="365.9963732273759" y="168.12" as="targetPoint" />
          </mxGeometry>
        </mxCell>
        <mxCell id="jZlvbW42aSFdG-7BeMvi-89" value="&lt;span style=&quot;font-size: 7px;&quot;&gt;&lt;font style=&quot;font-size: 7px;&quot;&gt;1.5 mm&lt;/font&gt;&lt;/span&gt;" style="text;align=center;html=1;verticalAlign=middle;rounded=0;shadow=0;glass=0;labelBorderColor=none;labelBackgroundColor=none;whiteSpace=wrap;fontStyle=0;container=0;fontSize=7;rotation=0;" parent="jZlvbW42aSFdG-7BeMvi-92" vertex="1">
          <mxGeometry x="336.9963732273759" y="152.62" width="27.27" height="8" as="geometry" />
        </mxCell>
        <mxCell id="jZlvbW42aSFdG-7BeMvi-90" value="" style="endArrow=classic;startArrow=classic;html=1;rounded=0;movable=1;resizable=1;rotatable=1;deletable=1;editable=1;locked=0;connectable=1;sourcePerimeterSpacing=0;strokeWidth=1;endSize=3;startSize=3;" parent="jZlvbW42aSFdG-7BeMvi-92" edge="1">
          <mxGeometry width="50" height="50" relative="1" as="geometry">
            <mxPoint x="345.4963732273759" y="170.62" as="sourcePoint" />
            <mxPoint x="345.4963732273759" y="194.62" as="targetPoint" />
          </mxGeometry>
        </mxCell>
        <mxCell id="jZlvbW42aSFdG-7BeMvi-91" value="&lt;span style=&quot;font-size: 7px;&quot;&gt;&lt;font style=&quot;font-size: 7px;&quot;&gt;1.85 mm&lt;/font&gt;&lt;/span&gt;" style="text;align=center;html=1;verticalAlign=middle;rounded=0;shadow=0;glass=0;labelBorderColor=none;labelBackgroundColor=none;whiteSpace=wrap;fontStyle=0;container=0;fontSize=7;rotation=-90;" parent="jZlvbW42aSFdG-7BeMvi-92" vertex="1">
          <mxGeometry x="315.1263732273759" y="176.62" width="37" height="8" as="geometry" />
        </mxCell>
        <mxCell id="jZlvbW42aSFdG-7BeMvi-159" value="" style="group" parent="1" vertex="1" connectable="0">
          <mxGeometry x="91.7321" y="-729.9198" width="280.1776046501699" height="259.26000000000005" as="geometry" />
        </mxCell>
        <mxCell id="jZlvbW42aSFdG-7BeMvi-157" value="&lt;span style=&quot;font-weight: 400;&quot;&gt;(2)&lt;/span&gt;" style="text;align=center;html=1;verticalAlign=middle;rounded=0;shadow=0;glass=0;labelBorderColor=none;labelBackgroundColor=none;whiteSpace=wrap;fontStyle=1;container=0;rotation=0;fontSize=8;perimeterSpacing=1;" parent="jZlvbW42aSFdG-7BeMvi-159" vertex="1">
          <mxGeometry x="140.17919999999995" y="48.918000000000006" width="12.55" height="9.7" as="geometry" />
        </mxCell>
        <mxCell id="jZlvbW42aSFdG-7BeMvi-94" value="" style="rounded=1;whiteSpace=wrap;html=1;fillColor=none;strokeWidth=1.5;glass=0;shadow=0;perimeterSpacing=0;arcSize=0;container=0;" parent="jZlvbW42aSFdG-7BeMvi-159" vertex="1">
          <mxGeometry x="70.4565" y="49.879999999999995" width="151.52" height="142.9" as="geometry" />
        </mxCell>
        <mxCell id="jZlvbW42aSFdG-7BeMvi-97" value="&lt;font style=&quot;font-size: 20px;&quot;&gt;Case Front View&lt;br&gt;&lt;/font&gt;" style="text;align=center;html=1;verticalAlign=middle;rounded=0;shadow=0;glass=0;labelBorderColor=none;labelBackgroundColor=none;whiteSpace=wrap;fontStyle=1;container=0;" parent="jZlvbW42aSFdG-7BeMvi-159" vertex="1">
          <mxGeometry x="10.17581545543186" width="270.00178919473797" height="38.26" as="geometry" />
        </mxCell>
        <mxCell id="jZlvbW42aSFdG-7BeMvi-98" value="&lt;span style=&quot;font-weight: normal;&quot;&gt;&lt;font style=&quot;font-size: 20px;&quot;&gt;21.2 mm&lt;/font&gt;&lt;/span&gt;" style="text;align=center;html=1;verticalAlign=middle;rounded=0;shadow=0;glass=0;labelBorderColor=none;labelBackgroundColor=none;whiteSpace=wrap;fontStyle=1;container=0;" parent="jZlvbW42aSFdG-7BeMvi-159" vertex="1">
          <mxGeometry x="70.45900562802845" y="220.9985321100918" width="157.9056316811369" height="38.26146788990826" as="geometry" />
        </mxCell>
        <mxCell id="jZlvbW42aSFdG-7BeMvi-99" value="" style="endArrow=classic;startArrow=classic;html=1;rounded=0;movable=1;resizable=1;rotatable=1;deletable=1;editable=1;locked=0;connectable=1;sourcePerimeterSpacing=0;strokeWidth=1.5;" parent="jZlvbW42aSFdG-7BeMvi-159" edge="1">
          <mxGeometry width="50" height="50" relative="1" as="geometry">
            <mxPoint x="74.5265" y="216" as="sourcePoint" />
            <mxPoint x="218.52649999999997" y="216" as="targetPoint" />
          </mxGeometry>
        </mxCell>
        <mxCell id="jZlvbW42aSFdG-7BeMvi-100" value="" style="endArrow=classic;startArrow=classic;html=1;rounded=0;movable=1;resizable=1;rotatable=1;deletable=1;editable=1;locked=0;connectable=1;strokeWidth=1.5;sourcePerimeterSpacing=0;" parent="jZlvbW42aSFdG-7BeMvi-159" edge="1">
          <mxGeometry width="50" height="50" relative="1" as="geometry">
            <mxPoint x="47.17998587126439" y="189.95820000000003" as="sourcePoint" />
            <mxPoint x="47.34649999999999" y="52.700000000000045" as="targetPoint" />
          </mxGeometry>
        </mxCell>
        <mxCell id="jZlvbW42aSFdG-7BeMvi-101" value="&lt;span style=&quot;font-weight: normal;&quot;&gt;&lt;font style=&quot;font-size: 20px;&quot;&gt;20 mm&lt;/font&gt;&lt;/span&gt;" style="text;align=center;html=1;verticalAlign=middle;rounded=0;shadow=0;glass=0;labelBorderColor=none;labelBackgroundColor=none;whiteSpace=wrap;fontStyle=1;direction=east;rotation=-90;container=0;" parent="jZlvbW42aSFdG-7BeMvi-159" vertex="1">
          <mxGeometry x="-59.82208189561429" y="101.89966360856272" width="157.9056316811369" height="38.26146788990826" as="geometry" />
        </mxCell>
        <mxCell id="jZlvbW42aSFdG-7BeMvi-115" value="" style="ellipse;whiteSpace=wrap;html=1;aspect=fixed;strokeWidth=1.5;fillColor=none;container=0;dashed=1;dashPattern=1 1;" parent="jZlvbW42aSFdG-7BeMvi-159" vertex="1">
          <mxGeometry x="123.6865" y="69.99850000000004" width="45.06" height="45.06" as="geometry" />
        </mxCell>
        <mxCell id="jZlvbW42aSFdG-7BeMvi-116" value="" style="endArrow=none;html=1;rounded=0;strokeWidth=1.5;" parent="jZlvbW42aSFdG-7BeMvi-159" edge="1">
          <mxGeometry width="50" height="50" relative="1" as="geometry">
            <mxPoint x="70.1765" y="60" as="sourcePoint" />
            <mxPoint x="221.1765" y="60" as="targetPoint" />
          </mxGeometry>
        </mxCell>
        <mxCell id="jZlvbW42aSFdG-7BeMvi-117" value="&lt;span style=&quot;font-weight: normal; font-size: 11px;&quot;&gt;&lt;font style=&quot;font-size: 11px;&quot;&gt;5 mm&lt;/font&gt;&lt;/span&gt;" style="text;align=center;html=1;verticalAlign=middle;rounded=0;shadow=0;glass=0;labelBorderColor=none;labelBackgroundColor=none;whiteSpace=wrap;fontStyle=1;container=0;fontSize=11;rotation=0;" parent="jZlvbW42aSFdG-7BeMvi-159" vertex="1">
          <mxGeometry x="126.1765" y="133" width="39" height="13.26" as="geometry" />
        </mxCell>
        <mxCell id="jZlvbW42aSFdG-7BeMvi-118" value="" style="endArrow=classic;startArrow=classic;html=1;rounded=0;movable=1;resizable=1;rotatable=1;deletable=1;editable=1;locked=0;connectable=1;sourcePerimeterSpacing=0;strokeWidth=1;" parent="jZlvbW42aSFdG-7BeMvi-159" edge="1">
          <mxGeometry width="50" height="50" relative="1" as="geometry">
            <mxPoint x="124.17209999999997" y="125.99837340346471" as="sourcePoint" />
            <mxPoint x="168.17209999999997" y="125.99837340346471" as="targetPoint" />
          </mxGeometry>
        </mxCell>
        <mxCell id="jZlvbW42aSFdG-7BeMvi-119" value="" style="ellipse;whiteSpace=wrap;html=1;aspect=fixed;fontColor=#000000;fillColor=#000000;container=0;" parent="jZlvbW42aSFdG-7BeMvi-159" vertex="1">
          <mxGeometry x="144.96036983638768" y="91.26938837920488" width="2.5105769738052994" height="2.5124900372854664" as="geometry" />
        </mxCell>
        <mxCell id="jZlvbW42aSFdG-7BeMvi-120" value="" style="endArrow=classic;startArrow=classic;html=1;rounded=0;movable=1;resizable=1;rotatable=1;deletable=1;editable=1;locked=0;connectable=1;sourcePerimeterSpacing=0;strokeWidth=1;" parent="jZlvbW42aSFdG-7BeMvi-159" edge="1">
          <mxGeometry width="50" height="50" relative="1" as="geometry">
            <mxPoint x="149.1765" y="92.32837340346475" as="sourcePoint" />
            <mxPoint x="217.1765" y="92.32837340346475" as="targetPoint" />
          </mxGeometry>
        </mxCell>
        <mxCell id="jZlvbW42aSFdG-7BeMvi-121" value="" style="endArrow=classic;startArrow=classic;html=1;rounded=0;movable=1;resizable=1;rotatable=1;deletable=1;editable=1;locked=0;connectable=1;sourcePerimeterSpacing=0;strokeWidth=1;" parent="jZlvbW42aSFdG-7BeMvi-159" edge="1">
          <mxGeometry width="50" height="50" relative="1" as="geometry">
            <mxPoint x="146.1765" y="90" as="sourcePoint" />
            <mxPoint x="146.1765" y="62" as="targetPoint" />
          </mxGeometry>
        </mxCell>
        <mxCell id="jZlvbW42aSFdG-7BeMvi-122" value="&lt;span style=&quot;font-weight: normal; font-size: 11px;&quot;&gt;&lt;font style=&quot;font-size: 11px;&quot;&gt;10.85 mm&lt;/font&gt;&lt;/span&gt;" style="text;align=center;html=1;verticalAlign=middle;rounded=0;shadow=0;glass=0;labelBorderColor=none;labelBackgroundColor=none;whiteSpace=wrap;fontStyle=1;container=0;fontSize=11;rotation=0;" parent="jZlvbW42aSFdG-7BeMvi-159" vertex="1">
          <mxGeometry x="167.1765" y="97" width="52" height="13.26" as="geometry" />
        </mxCell>
        <mxCell id="jZlvbW42aSFdG-7BeMvi-123" value="&lt;span style=&quot;font-weight: normal; font-size: 11px;&quot;&gt;&lt;font style=&quot;font-size: 11px;&quot;&gt;4.5 mm&lt;/font&gt;&lt;/span&gt;" style="text;align=center;html=1;verticalAlign=middle;rounded=0;shadow=0;glass=0;labelBorderColor=none;labelBackgroundColor=none;whiteSpace=wrap;fontStyle=1;container=0;fontSize=11;rotation=-90;" parent="jZlvbW42aSFdG-7BeMvi-159" vertex="1">
          <mxGeometry x="115.1765" y="75" width="39" height="13.26" as="geometry" />
        </mxCell>
        <mxCell id="jZlvbW42aSFdG-7BeMvi-125" value="" style="endArrow=classic;startArrow=classic;html=1;rounded=0;movable=1;resizable=1;rotatable=1;deletable=1;editable=1;locked=0;connectable=1;sourcePerimeterSpacing=0;strokeWidth=1;endSize=1;startSize=1;" parent="jZlvbW42aSFdG-7BeMvi-159" edge="1">
          <mxGeometry width="50" height="50" relative="1" as="geometry">
            <mxPoint x="228.1765" y="60" as="sourcePoint" />
            <mxPoint x="228.07718659809004" y="50" as="targetPoint" />
          </mxGeometry>
        </mxCell>
        <mxCell id="jZlvbW42aSFdG-7BeMvi-126" value="&lt;span style=&quot;font-size: 10px;&quot;&gt;&lt;font style=&quot;font-size: 10px;&quot;&gt;1.6 mm&lt;/font&gt;&lt;/span&gt;" style="text;align=center;html=1;verticalAlign=middle;rounded=0;shadow=0;glass=0;labelBorderColor=none;labelBackgroundColor=none;whiteSpace=wrap;fontStyle=0;container=0;fontSize=10;rotation=0;" parent="jZlvbW42aSFdG-7BeMvi-159" vertex="1">
          <mxGeometry x="221.18000720350798" y="48.00319999999988" width="57.000377718889126" height="14.73" as="geometry" />
        </mxCell>
        <mxCell id="jZlvbW42aSFdG-7BeMvi-160" value="" style="group" parent="1" vertex="1" connectable="0">
          <mxGeometry x="490.00350000000003" y="-729.9198" width="280.17760465016977" height="259.26000000000005" as="geometry" />
        </mxCell>
        <mxCell id="jZlvbW42aSFdG-7BeMvi-158" value="&lt;span style=&quot;font-weight: 400;&quot;&gt;(2)&lt;/span&gt;" style="text;align=center;html=1;verticalAlign=middle;rounded=0;shadow=0;glass=0;labelBorderColor=none;labelBackgroundColor=none;whiteSpace=wrap;fontStyle=1;container=0;rotation=0;fontSize=8;perimeterSpacing=1;" parent="jZlvbW42aSFdG-7BeMvi-160" vertex="1">
          <mxGeometry x="142.99919999999997" y="48.918000000000006" width="12.55" height="9.7" as="geometry" />
        </mxCell>
        <mxCell id="jZlvbW42aSFdG-7BeMvi-129" value="" style="rounded=1;whiteSpace=wrap;html=1;fillColor=none;strokeWidth=1.5;glass=0;shadow=0;perimeterSpacing=0;arcSize=0;container=0;" parent="jZlvbW42aSFdG-7BeMvi-160" vertex="1">
          <mxGeometry x="70.4565" y="49.879999999999995" width="151.52" height="142.9" as="geometry" />
        </mxCell>
        <mxCell id="jZlvbW42aSFdG-7BeMvi-130" value="&lt;font style=&quot;font-size: 20px;&quot;&gt;Case Back View&lt;br&gt;&lt;/font&gt;" style="text;align=center;html=1;verticalAlign=middle;rounded=0;shadow=0;glass=0;labelBorderColor=none;labelBackgroundColor=none;whiteSpace=wrap;fontStyle=1;container=0;" parent="jZlvbW42aSFdG-7BeMvi-160" vertex="1">
          <mxGeometry x="10.17581545543186" width="270.00178919473797" height="38.26" as="geometry" />
        </mxCell>
        <mxCell id="jZlvbW42aSFdG-7BeMvi-131" value="&lt;span style=&quot;font-weight: normal;&quot;&gt;&lt;font style=&quot;font-size: 20px;&quot;&gt;21.2 mm&lt;/font&gt;&lt;/span&gt;" style="text;align=center;html=1;verticalAlign=middle;rounded=0;shadow=0;glass=0;labelBorderColor=none;labelBackgroundColor=none;whiteSpace=wrap;fontStyle=1;container=0;" parent="jZlvbW42aSFdG-7BeMvi-160" vertex="1">
          <mxGeometry x="70.45900562802842" y="220.9985321100918" width="157.9056316811369" height="38.26146788990826" as="geometry" />
        </mxCell>
        <mxCell id="jZlvbW42aSFdG-7BeMvi-132" value="" style="endArrow=classic;startArrow=classic;html=1;rounded=0;movable=1;resizable=1;rotatable=1;deletable=1;editable=1;locked=0;connectable=1;sourcePerimeterSpacing=0;strokeWidth=1.5;" parent="jZlvbW42aSFdG-7BeMvi-160" edge="1">
          <mxGeometry width="50" height="50" relative="1" as="geometry">
            <mxPoint x="74.52649999999994" y="216" as="sourcePoint" />
            <mxPoint x="218.52649999999994" y="216" as="targetPoint" />
          </mxGeometry>
        </mxCell>
        <mxCell id="jZlvbW42aSFdG-7BeMvi-133" value="" style="endArrow=classic;startArrow=classic;html=1;rounded=0;movable=1;resizable=1;rotatable=1;deletable=1;editable=1;locked=0;connectable=1;strokeWidth=1.5;sourcePerimeterSpacing=0;" parent="jZlvbW42aSFdG-7BeMvi-160" edge="1">
          <mxGeometry width="50" height="50" relative="1" as="geometry">
            <mxPoint x="47.17998587126442" y="189.95820000000003" as="sourcePoint" />
            <mxPoint x="47.34649999999999" y="52.700000000000045" as="targetPoint" />
          </mxGeometry>
        </mxCell>
        <mxCell id="jZlvbW42aSFdG-7BeMvi-134" value="&lt;span style=&quot;font-weight: normal;&quot;&gt;&lt;font style=&quot;font-size: 20px;&quot;&gt;20 mm&lt;/font&gt;&lt;/span&gt;" style="text;align=center;html=1;verticalAlign=middle;rounded=0;shadow=0;glass=0;labelBorderColor=none;labelBackgroundColor=none;whiteSpace=wrap;fontStyle=1;direction=east;rotation=-90;container=0;" parent="jZlvbW42aSFdG-7BeMvi-160" vertex="1">
          <mxGeometry x="-59.8220818956143" y="101.89966360856272" width="157.9056316811369" height="38.26146788990826" as="geometry" />
        </mxCell>
        <mxCell id="jZlvbW42aSFdG-7BeMvi-135" value="" style="ellipse;whiteSpace=wrap;html=1;aspect=fixed;strokeWidth=1.5;fillColor=none;container=0;dashed=1;dashPattern=1 1;" parent="jZlvbW42aSFdG-7BeMvi-160" vertex="1">
          <mxGeometry x="89.99649999999997" y="140.15980000000002" width="15.14" height="15.14" as="geometry" />
        </mxCell>
        <mxCell id="jZlvbW42aSFdG-7BeMvi-136" value="" style="endArrow=none;html=1;rounded=0;strokeWidth=1.5;" parent="jZlvbW42aSFdG-7BeMvi-160" edge="1">
          <mxGeometry width="50" height="50" relative="1" as="geometry">
            <mxPoint x="70.17650000000003" y="60" as="sourcePoint" />
            <mxPoint x="221.17650000000003" y="60" as="targetPoint" />
          </mxGeometry>
        </mxCell>
        <mxCell id="jZlvbW42aSFdG-7BeMvi-139" value="" style="ellipse;whiteSpace=wrap;html=1;aspect=fixed;fontColor=#000000;fillColor=#000000;container=0;" parent="jZlvbW42aSFdG-7BeMvi-160" vertex="1">
          <mxGeometry x="96.31036983638774" y="146.46938837920493" width="2.5105769738052994" height="2.5124900372854664" as="geometry" />
        </mxCell>
        <mxCell id="jZlvbW42aSFdG-7BeMvi-146" value="" style="ellipse;whiteSpace=wrap;html=1;aspect=fixed;strokeWidth=1.5;fillColor=none;container=0;dashed=1;dashPattern=1 1;" parent="jZlvbW42aSFdG-7BeMvi-160" vertex="1">
          <mxGeometry x="187.99649999999997" y="140.15980000000002" width="15.14" height="15.14" as="geometry" />
        </mxCell>
        <mxCell id="jZlvbW42aSFdG-7BeMvi-147" value="" style="ellipse;whiteSpace=wrap;html=1;aspect=fixed;fontColor=#000000;fillColor=#000000;container=0;" parent="jZlvbW42aSFdG-7BeMvi-160" vertex="1">
          <mxGeometry x="194.31036983638774" y="146.46938837920493" width="2.5105769738052994" height="2.5124900372854664" as="geometry" />
        </mxCell>
        <mxCell id="jZlvbW42aSFdG-7BeMvi-148" value="" style="endArrow=classic;startArrow=classic;html=1;rounded=0;movable=1;resizable=1;rotatable=1;deletable=1;editable=1;locked=0;connectable=1;sourcePerimeterSpacing=0;strokeWidth=1;" parent="jZlvbW42aSFdG-7BeMvi-160" edge="1">
          <mxGeometry width="50" height="50" relative="1" as="geometry">
            <mxPoint x="100.49649999999997" y="147.41837340346478" as="sourcePoint" />
            <mxPoint x="191.99649999999997" y="147.41837340346478" as="targetPoint" />
          </mxGeometry>
        </mxCell>
        <mxCell id="jZlvbW42aSFdG-7BeMvi-150" value="&lt;span style=&quot;font-weight: normal; font-size: 16px;&quot;&gt;&lt;font style=&quot;font-size: 16px;&quot;&gt;14.2 mm&lt;/font&gt;&lt;/span&gt;" style="text;align=center;html=1;verticalAlign=middle;rounded=0;shadow=0;glass=0;labelBorderColor=none;labelBackgroundColor=none;whiteSpace=wrap;fontStyle=1;container=0;fontSize=16;" parent="jZlvbW42aSFdG-7BeMvi-160" vertex="1">
          <mxGeometry x="109.67649999999992" y="155.2998" width="73.08" height="13.07" as="geometry" />
        </mxCell>
        <mxCell id="jZlvbW42aSFdG-7BeMvi-151" value="" style="endArrow=classic;startArrow=classic;html=1;rounded=0;movable=1;resizable=1;rotatable=1;deletable=1;editable=1;locked=0;connectable=1;sourcePerimeterSpacing=0;strokeWidth=1;" parent="jZlvbW42aSFdG-7BeMvi-160" edge="1">
          <mxGeometry width="50" height="50" relative="1" as="geometry">
            <mxPoint x="195.49649999999997" y="150.91837340346478" as="sourcePoint" />
            <mxPoint x="195.49649999999997" y="188.9198" as="targetPoint" />
          </mxGeometry>
        </mxCell>
        <mxCell id="jZlvbW42aSFdG-7BeMvi-153" value="&lt;span style=&quot;font-weight: normal; font-size: 11px;&quot;&gt;&lt;font style=&quot;font-size: 11px;&quot;&gt;6 mm&lt;/font&gt;&lt;/span&gt;" style="text;align=center;html=1;verticalAlign=middle;rounded=0;shadow=0;glass=0;labelBorderColor=none;labelBackgroundColor=none;whiteSpace=wrap;fontStyle=1;container=0;fontSize=11;rotation=-90;" parent="jZlvbW42aSFdG-7BeMvi-160" vertex="1">
          <mxGeometry x="187.99649999999997" y="163.91999999999996" width="39" height="13.26" as="geometry" />
        </mxCell>
        <mxCell id="jZlvbW42aSFdG-7BeMvi-154" value="" style="endArrow=classic;startArrow=classic;html=1;rounded=0;movable=1;resizable=1;rotatable=1;deletable=1;editable=1;locked=0;connectable=1;sourcePerimeterSpacing=0;strokeWidth=1;" parent="jZlvbW42aSFdG-7BeMvi-160" edge="1">
          <mxGeometry width="50" height="50" relative="1" as="geometry">
            <mxPoint x="92.99649999999997" y="147.91837340346478" as="sourcePoint" />
            <mxPoint x="72.99649999999997" y="147.9198" as="targetPoint" />
          </mxGeometry>
        </mxCell>
        <mxCell id="jZlvbW42aSFdG-7BeMvi-155" value="&lt;span style=&quot;font-weight: normal; font-size: 11px;&quot;&gt;&lt;font style=&quot;font-size: 11px;&quot;&gt;3.5 mm&lt;/font&gt;&lt;/span&gt;" style="text;align=center;html=1;verticalAlign=middle;rounded=0;shadow=0;glass=0;labelBorderColor=none;labelBackgroundColor=none;whiteSpace=wrap;fontStyle=1;container=0;fontSize=11;rotation=0;" parent="jZlvbW42aSFdG-7BeMvi-160" vertex="1">
          <mxGeometry x="70.99649999999997" y="125.91980000000001" width="43" height="13.26" as="geometry" />
        </mxCell>
        <mxCell id="jZlvbW42aSFdG-7BeMvi-202" value="" style="group" parent="1" vertex="1" connectable="0">
          <mxGeometry x="91.7321" y="-426.7708" width="280.1776046501698" height="265.0300000000001" as="geometry" />
        </mxCell>
        <mxCell id="jZlvbW42aSFdG-7BeMvi-163" value="" style="rounded=1;whiteSpace=wrap;html=1;fillColor=none;strokeWidth=1.5;glass=0;shadow=0;perimeterSpacing=0;arcSize=9;container=0;" parent="jZlvbW42aSFdG-7BeMvi-202" vertex="1">
          <mxGeometry x="70.47229999999999" y="49.9999" width="151.52" height="151.5745" as="geometry" />
        </mxCell>
        <mxCell id="jZlvbW42aSFdG-7BeMvi-164" value="&lt;font style=&quot;font-size: 20px;&quot;&gt;Case Support Top View&lt;br&gt;&lt;/font&gt;" style="text;align=center;html=1;verticalAlign=middle;rounded=0;shadow=0;glass=0;labelBorderColor=none;labelBackgroundColor=none;whiteSpace=wrap;fontStyle=1;container=0;" parent="jZlvbW42aSFdG-7BeMvi-202" vertex="1">
          <mxGeometry x="10.17581545543186" width="270.00178919473797" height="38.26" as="geometry" />
        </mxCell>
        <mxCell id="jZlvbW42aSFdG-7BeMvi-165" value="&lt;span style=&quot;font-weight: normal;&quot;&gt;&lt;font style=&quot;font-size: 20px;&quot;&gt;21.2 mm&lt;/font&gt;&lt;/span&gt;" style="text;align=center;html=1;verticalAlign=middle;rounded=0;shadow=0;glass=0;labelBorderColor=none;labelBackgroundColor=none;whiteSpace=wrap;fontStyle=1;container=0;" parent="jZlvbW42aSFdG-7BeMvi-202" vertex="1">
          <mxGeometry x="70.45900562802845" y="226.7685321100918" width="157.9056316811369" height="38.26146788990826" as="geometry" />
        </mxCell>
        <mxCell id="jZlvbW42aSFdG-7BeMvi-166" value="" style="endArrow=classic;startArrow=classic;html=1;rounded=0;movable=1;resizable=1;rotatable=1;deletable=1;editable=1;locked=0;connectable=1;sourcePerimeterSpacing=0;strokeWidth=1.5;" parent="jZlvbW42aSFdG-7BeMvi-202" edge="1">
          <mxGeometry width="50" height="50" relative="1" as="geometry">
            <mxPoint x="74.5265" y="221.77" as="sourcePoint" />
            <mxPoint x="218.5265" y="221.77" as="targetPoint" />
          </mxGeometry>
        </mxCell>
        <mxCell id="jZlvbW42aSFdG-7BeMvi-167" value="" style="endArrow=classic;startArrow=classic;html=1;rounded=0;movable=1;resizable=1;rotatable=1;deletable=1;editable=1;locked=0;connectable=1;strokeWidth=1.5;sourcePerimeterSpacing=0;" parent="jZlvbW42aSFdG-7BeMvi-202" edge="1">
          <mxGeometry width="50" height="50" relative="1" as="geometry">
            <mxPoint x="47.2679" y="198.7708" as="sourcePoint" />
            <mxPoint x="47.34649999999999" y="52.700000000000045" as="targetPoint" />
          </mxGeometry>
        </mxCell>
        <mxCell id="jZlvbW42aSFdG-7BeMvi-168" value="&lt;span style=&quot;font-weight: normal;&quot;&gt;&lt;font style=&quot;font-size: 20px;&quot;&gt;21.2 mm&lt;/font&gt;&lt;/span&gt;" style="text;align=center;html=1;verticalAlign=middle;rounded=0;shadow=0;glass=0;labelBorderColor=none;labelBackgroundColor=none;whiteSpace=wrap;fontStyle=1;direction=east;rotation=-90;container=0;" parent="jZlvbW42aSFdG-7BeMvi-202" vertex="1">
          <mxGeometry x="-59.82208189561429" y="101.89966360856272" width="157.9056316811369" height="38.26146788990826" as="geometry" />
        </mxCell>
        <mxCell id="jZlvbW42aSFdG-7BeMvi-182" value="" style="group" parent="jZlvbW42aSFdG-7BeMvi-202" vertex="1" connectable="0">
          <mxGeometry x="81.2679" y="65.77080000000001" width="130" height="119" as="geometry" />
        </mxCell>
        <mxCell id="jZlvbW42aSFdG-7BeMvi-180" value="" style="verticalLabelPosition=bottom;verticalAlign=top;html=1;shape=mxgraph.basic.polygon;polyCoords=[[0.97,0.25],[0.97,0.26],[0.97,0.75],[0.82,0.75],[0.49,0.86],[0.15,0.75],[0,0.75],[0,0.25]];polyline=1;fillColor=none;strokeWidth=1.5;" parent="jZlvbW42aSFdG-7BeMvi-182" vertex="1">
          <mxGeometry x="3.957727360868705" width="126.04227263913128" height="118.88111888111885" as="geometry" />
        </mxCell>
        <mxCell id="jZlvbW42aSFdG-7BeMvi-181" value="" style="verticalLabelPosition=bottom;verticalAlign=top;html=1;shape=mxgraph.basic.polygon;polyCoords=[[0.97,0.25],[0.97,0.26],[0.97,0.75],[0.82,0.75],[0.48,0.86],[0.15,0.75],[0,0.75],[0,0.25]];polyline=1;fillColor=none;strokeWidth=1.5;rotation=-180;" parent="jZlvbW42aSFdG-7BeMvi-182" vertex="1">
          <mxGeometry y="0.11888111888114587" width="126.04227263913128" height="118.88111888111885" as="geometry" />
        </mxCell>
        <mxCell id="jZlvbW42aSFdG-7BeMvi-183" value="" style="endArrow=none;html=1;rounded=0;strokeWidth=1.5;" parent="jZlvbW42aSFdG-7BeMvi-202" edge="1">
          <mxGeometry width="50" height="50" relative="1" as="geometry">
            <mxPoint x="146.9679" y="167.7708" as="sourcePoint" />
            <mxPoint x="146.9679" y="82.77080000000001" as="targetPoint" />
          </mxGeometry>
        </mxCell>
        <mxCell id="jZlvbW42aSFdG-7BeMvi-184" value="" style="endArrow=none;html=1;rounded=0;strokeWidth=1.5;" parent="jZlvbW42aSFdG-7BeMvi-202" edge="1">
          <mxGeometry width="50" height="50" relative="1" as="geometry">
            <mxPoint x="188.2679" y="154.7708" as="sourcePoint" />
            <mxPoint x="188.2679" y="95.77080000000001" as="targetPoint" />
          </mxGeometry>
        </mxCell>
        <mxCell id="jZlvbW42aSFdG-7BeMvi-185" value="" style="endArrow=none;html=1;rounded=0;strokeWidth=1.5;" parent="jZlvbW42aSFdG-7BeMvi-202" edge="1">
          <mxGeometry width="50" height="50" relative="1" as="geometry">
            <mxPoint x="104.2679" y="154.7708" as="sourcePoint" />
            <mxPoint x="104.2679" y="95.77080000000001" as="targetPoint" />
          </mxGeometry>
        </mxCell>
        <mxCell id="jZlvbW42aSFdG-7BeMvi-186" value="" style="endArrow=none;html=1;rounded=0;strokeWidth=1.5;" parent="jZlvbW42aSFdG-7BeMvi-202" edge="1">
          <mxGeometry width="50" height="50" relative="1" as="geometry">
            <mxPoint x="201.2679" y="154.7708" as="sourcePoint" />
            <mxPoint x="201.2679" y="95.77080000000001" as="targetPoint" />
          </mxGeometry>
        </mxCell>
        <mxCell id="jZlvbW42aSFdG-7BeMvi-187" value="" style="endArrow=none;html=1;rounded=0;strokeWidth=1.5;" parent="jZlvbW42aSFdG-7BeMvi-202" edge="1">
          <mxGeometry width="50" height="50" relative="1" as="geometry">
            <mxPoint x="90.7679" y="154.7708" as="sourcePoint" />
            <mxPoint x="90.7679" y="95.77080000000001" as="targetPoint" />
          </mxGeometry>
        </mxCell>
        <mxCell id="jZlvbW42aSFdG-7BeMvi-188" value="" style="endArrow=none;html=1;rounded=0;strokeWidth=1.5;" parent="jZlvbW42aSFdG-7BeMvi-202" edge="1">
          <mxGeometry width="50" height="50" relative="1" as="geometry">
            <mxPoint x="207.2679" y="95.77080000000001" as="sourcePoint" />
            <mxPoint x="222.2679" y="62.77080000000001" as="targetPoint" />
          </mxGeometry>
        </mxCell>
        <mxCell id="jZlvbW42aSFdG-7BeMvi-189" value="" style="endArrow=none;html=1;rounded=0;strokeWidth=1.5;" parent="jZlvbW42aSFdG-7BeMvi-202" edge="1">
          <mxGeometry width="50" height="50" relative="1" as="geometry">
            <mxPoint x="70.2679" y="62.77080000000001" as="sourcePoint" />
            <mxPoint x="85.2679" y="95.77080000000001" as="targetPoint" />
          </mxGeometry>
        </mxCell>
        <mxCell id="jZlvbW42aSFdG-7BeMvi-190" value="" style="endArrow=none;html=1;rounded=0;strokeWidth=1.5;" parent="jZlvbW42aSFdG-7BeMvi-202" edge="1">
          <mxGeometry width="50" height="50" relative="1" as="geometry">
            <mxPoint x="222.2679" y="186.7708" as="sourcePoint" />
            <mxPoint x="207.2679" y="153.7708" as="targetPoint" />
          </mxGeometry>
        </mxCell>
        <mxCell id="jZlvbW42aSFdG-7BeMvi-191" value="" style="endArrow=none;html=1;rounded=0;strokeWidth=1.5;" parent="jZlvbW42aSFdG-7BeMvi-202" edge="1">
          <mxGeometry width="50" height="50" relative="1" as="geometry">
            <mxPoint x="85.2679" y="153.7708" as="sourcePoint" />
            <mxPoint x="70.2679" y="186.7708" as="targetPoint" />
          </mxGeometry>
        </mxCell>
        <mxCell id="jZlvbW42aSFdG-7BeMvi-192" value="&lt;span style=&quot;font-weight: 400;&quot;&gt;(3)&lt;/span&gt;" style="text;align=center;html=1;verticalAlign=middle;rounded=0;shadow=0;glass=0;labelBorderColor=none;labelBackgroundColor=none;whiteSpace=wrap;fontStyle=1;container=0;rotation=0;fontSize=8;perimeterSpacing=1;" parent="jZlvbW42aSFdG-7BeMvi-202" vertex="1">
          <mxGeometry x="140.2706" y="59.769000000000005" width="12.55" height="9.7" as="geometry" />
        </mxCell>
        <mxCell id="jZlvbW42aSFdG-7BeMvi-193" value="&lt;span style=&quot;font-weight: 400;&quot;&gt;(3)&lt;/span&gt;" style="text;align=center;html=1;verticalAlign=middle;rounded=0;shadow=0;glass=0;labelBorderColor=none;labelBackgroundColor=none;whiteSpace=wrap;fontStyle=1;container=0;rotation=0;fontSize=8;perimeterSpacing=1;" parent="jZlvbW42aSFdG-7BeMvi-202" vertex="1">
          <mxGeometry x="140.2706" y="176.769" width="12.55" height="9.7" as="geometry" />
        </mxCell>
        <mxCell id="jZlvbW42aSFdG-7BeMvi-194" value="&lt;span style=&quot;font-weight: 400;&quot;&gt;(3)&lt;/span&gt;" style="text;align=center;html=1;verticalAlign=middle;rounded=0;shadow=0;glass=0;labelBorderColor=none;labelBackgroundColor=none;whiteSpace=wrap;fontStyle=1;container=0;rotation=0;fontSize=8;perimeterSpacing=1;" parent="jZlvbW42aSFdG-7BeMvi-202" vertex="1">
          <mxGeometry x="208.2706" y="119.769" width="12.55" height="9.7" as="geometry" />
        </mxCell>
        <mxCell id="jZlvbW42aSFdG-7BeMvi-195" value="&lt;span style=&quot;font-weight: 400;&quot;&gt;(3)&lt;/span&gt;" style="text;align=center;html=1;verticalAlign=middle;rounded=0;shadow=0;glass=0;labelBorderColor=none;labelBackgroundColor=none;whiteSpace=wrap;fontStyle=1;container=0;rotation=0;fontSize=8;perimeterSpacing=1;" parent="jZlvbW42aSFdG-7BeMvi-202" vertex="1">
          <mxGeometry x="71.2706" y="119.769" width="12.55" height="9.7" as="geometry" />
        </mxCell>
        <mxCell id="jZlvbW42aSFdG-7BeMvi-196" value="&lt;span style=&quot;font-weight: normal; font-size: 11px;&quot;&gt;&lt;font style=&quot;font-size: 11px;&quot;&gt;7 mm&lt;/font&gt;&lt;/span&gt;" style="text;align=center;html=1;verticalAlign=middle;rounded=0;shadow=0;glass=0;labelBorderColor=none;labelBackgroundColor=none;whiteSpace=wrap;fontStyle=1;container=0;fontSize=11;rotation=0;" parent="jZlvbW42aSFdG-7BeMvi-202" vertex="1">
          <mxGeometry x="147.2665" y="130.77099999999996" width="39" height="13.26" as="geometry" />
        </mxCell>
        <mxCell id="jZlvbW42aSFdG-7BeMvi-197" value="" style="endArrow=classic;startArrow=classic;html=1;rounded=0;movable=1;resizable=1;rotatable=1;deletable=1;editable=1;locked=0;connectable=1;sourcePerimeterSpacing=0;strokeWidth=1;" parent="jZlvbW42aSFdG-7BeMvi-202" edge="1">
          <mxGeometry width="50" height="50" relative="1" as="geometry">
            <mxPoint x="149.27209999999997" y="125.76937340346467" as="sourcePoint" />
            <mxPoint x="185.2679" y="125.77080000000001" as="targetPoint" />
          </mxGeometry>
        </mxCell>
        <mxCell id="jZlvbW42aSFdG-7BeMvi-198" value="" style="endArrow=classic;startArrow=classic;html=1;rounded=0;movable=1;resizable=1;rotatable=1;deletable=1;editable=1;locked=0;connectable=1;sourcePerimeterSpacing=0;strokeWidth=1;" parent="jZlvbW42aSFdG-7BeMvi-202" edge="1">
          <mxGeometry width="50" height="50" relative="1" as="geometry">
            <mxPoint x="138.2679" y="162.7708" as="sourcePoint" />
            <mxPoint x="138.2679" y="87.77080000000001" as="targetPoint" />
          </mxGeometry>
        </mxCell>
        <mxCell id="jZlvbW42aSFdG-7BeMvi-199" value="&lt;span style=&quot;font-weight: normal; font-size: 11px;&quot;&gt;&lt;font style=&quot;font-size: 11px;&quot;&gt;11.7 mm&lt;/font&gt;&lt;/span&gt;" style="text;align=center;html=1;verticalAlign=middle;rounded=0;shadow=0;glass=0;labelBorderColor=none;labelBackgroundColor=none;whiteSpace=wrap;fontStyle=1;container=0;fontSize=11;rotation=-90;" parent="jZlvbW42aSFdG-7BeMvi-202" vertex="1">
          <mxGeometry x="100.2679" y="116.77080000000001" width="51" height="13.26" as="geometry" />
        </mxCell>
        <mxCell id="jZlvbW42aSFdG-7BeMvi-200" value="" style="endArrow=classic;startArrow=classic;html=1;rounded=0;movable=1;resizable=1;rotatable=1;deletable=1;editable=1;locked=0;connectable=1;sourcePerimeterSpacing=0;strokeWidth=1;" parent="jZlvbW42aSFdG-7BeMvi-202" edge="1">
          <mxGeometry width="50" height="50" relative="1" as="geometry">
            <mxPoint x="112.2679" y="154.7708" as="sourcePoint" />
            <mxPoint x="112.2679" y="96.77080000000001" as="targetPoint" />
          </mxGeometry>
        </mxCell>
        <mxCell id="jZlvbW42aSFdG-7BeMvi-201" value="&lt;span style=&quot;font-weight: normal; font-size: 11px;&quot;&gt;&lt;font style=&quot;font-size: 11px;&quot;&gt;8 mm&lt;/font&gt;&lt;/span&gt;" style="text;align=center;html=1;verticalAlign=middle;rounded=0;shadow=0;glass=0;labelBorderColor=none;labelBackgroundColor=none;whiteSpace=wrap;fontStyle=1;container=0;fontSize=11;rotation=-90;" parent="jZlvbW42aSFdG-7BeMvi-202" vertex="1">
          <mxGeometry x="77.26650000000001" y="116.77099999999996" width="39" height="13.26" as="geometry" />
        </mxCell>
        <mxCell id="jZlvbW42aSFdG-7BeMvi-268" value="" style="group" parent="1" vertex="1" connectable="0">
          <mxGeometry x="461.0227" y="-426.7708" width="321.97978492239713" height="265.0300000000001" as="geometry" />
        </mxCell>
        <mxCell id="jZlvbW42aSFdG-7BeMvi-205" value="&lt;font style=&quot;font-size: 20px;&quot;&gt;Case Support Front View&lt;br&gt;&lt;/font&gt;" style="text;align=center;html=1;verticalAlign=middle;rounded=0;shadow=0;glass=0;labelBorderColor=none;labelBackgroundColor=none;whiteSpace=wrap;fontStyle=1;container=0;" parent="jZlvbW42aSFdG-7BeMvi-268" vertex="1">
          <mxGeometry x="39.15521545543186" width="270.00178919473797" height="38.26" as="geometry" />
        </mxCell>
        <mxCell id="jZlvbW42aSFdG-7BeMvi-256" value="" style="endArrow=classic;startArrow=classic;html=1;rounded=0;movable=1;resizable=1;rotatable=1;deletable=1;editable=1;locked=0;connectable=1;sourcePerimeterSpacing=0;strokeWidth=1;endSize=2;startSize=2;" parent="jZlvbW42aSFdG-7BeMvi-268" edge="1">
          <mxGeometry width="50" height="50" relative="1" as="geometry">
            <mxPoint x="271.9773" y="200.7708" as="sourcePoint" />
            <mxPoint x="271.9773" y="185.7708" as="targetPoint" />
          </mxGeometry>
        </mxCell>
        <mxCell id="jZlvbW42aSFdG-7BeMvi-257" value="&lt;span style=&quot;font-size: 10px;&quot;&gt;&lt;font style=&quot;font-size: 10px;&quot;&gt;1.6 mm&lt;/font&gt;&lt;/span&gt;" style="text;align=center;html=1;verticalAlign=middle;rounded=0;shadow=0;glass=0;labelBorderColor=none;labelBackgroundColor=none;whiteSpace=wrap;fontStyle=0;container=0;fontSize=10;rotation=0;" parent="jZlvbW42aSFdG-7BeMvi-268" vertex="1">
          <mxGeometry x="264.979407203508" y="186.7741999999999" width="57.000377718889126" height="14.73" as="geometry" />
        </mxCell>
        <mxCell id="jZlvbW42aSFdG-7BeMvi-258" value="&lt;span style=&quot;font-weight: 400;&quot;&gt;(3)&lt;/span&gt;" style="text;align=center;html=1;verticalAlign=middle;rounded=0;shadow=0;glass=0;labelBorderColor=none;labelBackgroundColor=none;whiteSpace=wrap;fontStyle=1;container=0;rotation=0;fontSize=8;perimeterSpacing=1;" parent="jZlvbW42aSFdG-7BeMvi-268" vertex="1">
          <mxGeometry x="162.98000000000002" y="168.769" width="12.55" height="9.7" as="geometry" />
        </mxCell>
        <mxCell id="jZlvbW42aSFdG-7BeMvi-259" value="" style="endArrow=classic;startArrow=classic;html=1;rounded=0;movable=1;resizable=1;rotatable=1;deletable=1;editable=1;locked=0;connectable=1;sourcePerimeterSpacing=0;strokeWidth=1;endSize=1;startSize=1;" parent="jZlvbW42aSFdG-7BeMvi-268" edge="1">
          <mxGeometry width="50" height="50" relative="1" as="geometry">
            <mxPoint x="239.9773" y="50.77080000000001" as="sourcePoint" />
            <mxPoint x="231.9773" y="44.77080000000001" as="targetPoint" />
          </mxGeometry>
        </mxCell>
        <mxCell id="jZlvbW42aSFdG-7BeMvi-260" value="&lt;span style=&quot;font-size: 7px;&quot;&gt;&lt;font style=&quot;font-size: 7px;&quot;&gt;1.15 mm&lt;/font&gt;&lt;/span&gt;" style="text;align=center;html=1;verticalAlign=middle;rounded=0;shadow=0;glass=0;labelBorderColor=none;labelBackgroundColor=none;whiteSpace=wrap;fontStyle=0;container=0;fontSize=7;rotation=33.5;" parent="jZlvbW42aSFdG-7BeMvi-268" vertex="1">
          <mxGeometry x="210.979407203508" y="35.774199999999894" width="57.000377718889126" height="14.73" as="geometry" />
        </mxCell>
        <mxCell id="jZlvbW42aSFdG-7BeMvi-261" value="" style="endArrow=classic;startArrow=classic;html=1;rounded=0;movable=1;resizable=1;rotatable=1;deletable=1;editable=1;locked=0;connectable=1;sourcePerimeterSpacing=0;strokeWidth=1;" parent="jZlvbW42aSFdG-7BeMvi-268" edge="1">
          <mxGeometry width="50" height="50" relative="1" as="geometry">
            <mxPoint x="123.97730000000001" y="59.76937340346478" as="sourcePoint" />
            <mxPoint x="212.9773" y="59.77080000000001" as="targetPoint" />
          </mxGeometry>
        </mxCell>
        <mxCell id="jZlvbW42aSFdG-7BeMvi-262" value="&lt;span style=&quot;font-weight: normal; font-size: 16px;&quot;&gt;&lt;font style=&quot;font-size: 16px;&quot;&gt;14.8 mm&lt;/font&gt;&lt;/span&gt;" style="text;align=center;html=1;verticalAlign=middle;rounded=0;shadow=0;glass=0;labelBorderColor=none;labelBackgroundColor=none;whiteSpace=wrap;fontStyle=1;container=0;fontSize=16;" parent="jZlvbW42aSFdG-7BeMvi-268" vertex="1">
          <mxGeometry x="132.9773" y="65.77080000000001" width="73.08" height="13.07" as="geometry" />
        </mxCell>
        <mxCell id="jZlvbW42aSFdG-7BeMvi-263" value="" style="endArrow=classic;startArrow=classic;html=1;rounded=0;movable=1;resizable=1;rotatable=1;deletable=1;editable=1;locked=0;connectable=1;sourcePerimeterSpacing=0;strokeWidth=1;endSize=1;startSize=1;" parent="jZlvbW42aSFdG-7BeMvi-268" edge="1">
          <mxGeometry width="50" height="50" relative="1" as="geometry">
            <mxPoint x="224.9773" y="103.77080000000001" as="sourcePoint" />
            <mxPoint x="234.9773" y="103.77080000000001" as="targetPoint" />
          </mxGeometry>
        </mxCell>
        <mxCell id="jZlvbW42aSFdG-7BeMvi-264" value="&lt;span style=&quot;font-size: 10px;&quot;&gt;&lt;font style=&quot;font-size: 10px;&quot;&gt;2 mm&lt;/font&gt;&lt;/span&gt;" style="text;align=center;html=1;verticalAlign=middle;rounded=0;shadow=0;glass=0;labelBorderColor=none;labelBackgroundColor=none;whiteSpace=wrap;fontStyle=0;container=0;fontSize=10;rotation=0;" parent="jZlvbW42aSFdG-7BeMvi-268" vertex="1">
          <mxGeometry x="198.979407203508" y="87.7741999999999" width="57.000377718889126" height="14.73" as="geometry" />
        </mxCell>
        <mxCell id="jZlvbW42aSFdG-7BeMvi-206" value="&lt;span style=&quot;font-weight: normal;&quot;&gt;&lt;font style=&quot;font-size: 20px;&quot;&gt;21.2 mm&lt;/font&gt;&lt;/span&gt;" style="text;align=center;html=1;verticalAlign=middle;rounded=0;shadow=0;glass=0;labelBorderColor=none;labelBackgroundColor=none;whiteSpace=wrap;fontStyle=1;container=0;" parent="jZlvbW42aSFdG-7BeMvi-268" vertex="1">
          <mxGeometry x="89.9890056280284" y="226.7685321100918" width="157.9056316811369" height="38.26146788990826" as="geometry" />
        </mxCell>
        <mxCell id="jZlvbW42aSFdG-7BeMvi-207" value="" style="endArrow=classic;startArrow=classic;html=1;rounded=0;movable=1;resizable=1;rotatable=1;deletable=1;editable=1;locked=0;connectable=1;sourcePerimeterSpacing=0;strokeWidth=1.5;" parent="jZlvbW42aSFdG-7BeMvi-268" edge="1">
          <mxGeometry width="50" height="50" relative="1" as="geometry">
            <mxPoint x="74.17790000000002" y="221.7708" as="sourcePoint" />
            <mxPoint x="262.9773" y="221.7708" as="targetPoint" />
          </mxGeometry>
        </mxCell>
        <mxCell id="jZlvbW42aSFdG-7BeMvi-208" value="" style="endArrow=classic;startArrow=classic;html=1;rounded=0;movable=1;resizable=1;rotatable=1;deletable=1;editable=1;locked=0;connectable=1;strokeWidth=1.5;sourcePerimeterSpacing=0;" parent="jZlvbW42aSFdG-7BeMvi-268" edge="1">
          <mxGeometry width="50" height="50" relative="1" as="geometry">
            <mxPoint x="46.99790000000007" y="198.7708" as="sourcePoint" />
            <mxPoint x="47.346500000000106" y="52.700000000000045" as="targetPoint" />
          </mxGeometry>
        </mxCell>
        <mxCell id="jZlvbW42aSFdG-7BeMvi-209" value="&lt;span style=&quot;font-weight: normal;&quot;&gt;&lt;font style=&quot;font-size: 20px;&quot;&gt;15.6 mm&lt;/font&gt;&lt;/span&gt;" style="text;align=center;html=1;verticalAlign=middle;rounded=0;shadow=0;glass=0;labelBorderColor=none;labelBackgroundColor=none;whiteSpace=wrap;fontStyle=1;direction=east;rotation=-90;container=0;" parent="jZlvbW42aSFdG-7BeMvi-268" vertex="1">
          <mxGeometry x="-59.8220818956143" y="101.89966360856272" width="157.9056316811369" height="38.26146788990826" as="geometry" />
        </mxCell>
        <mxCell id="jZlvbW42aSFdG-7BeMvi-254" value="" style="group" parent="jZlvbW42aSFdG-7BeMvi-268" vertex="1" connectable="0">
          <mxGeometry x="72.17790000000002" y="49.77080000000001" width="193.53" height="152.57" as="geometry" />
        </mxCell>
        <mxCell id="jZlvbW42aSFdG-7BeMvi-232" value="" style="rounded=1;whiteSpace=wrap;html=1;fillColor=none;strokeWidth=1.5;glass=0;shadow=0;perimeterSpacing=0;arcSize=0;container=0;" parent="jZlvbW42aSFdG-7BeMvi-254" vertex="1">
          <mxGeometry y="133.96035103875056" width="193.53000000000003" height="18.60964896124945" as="geometry" />
        </mxCell>
        <mxCell id="jZlvbW42aSFdG-7BeMvi-242" value="" style="curved=1;endArrow=none;html=1;rounded=0;strokeWidth=1.5;endFill=0;" parent="jZlvbW42aSFdG-7BeMvi-254" edge="1">
          <mxGeometry width="50" height="50" relative="1" as="geometry">
            <mxPoint x="-0.38317713833151534" y="133.96035103875056" as="sourcePoint" />
            <mxPoint x="28.099656810982054" y="66.2656773979667" as="targetPoint" />
            <Array as="points">
              <mxPoint x="12.772571277719114" y="123.74228709297185" />
              <mxPoint x="24.267885427666318" y="107.13793318108146" />
              <mxPoint x="26.82239968321014" y="90.5335792691911" />
            </Array>
          </mxGeometry>
        </mxCell>
        <mxCell id="jZlvbW42aSFdG-7BeMvi-243" value="" style="curved=1;endArrow=none;html=1;rounded=0;strokeWidth=1.5;endFill=0;" parent="jZlvbW42aSFdG-7BeMvi-254" edge="1">
          <mxGeometry width="50" height="50" relative="1" as="geometry">
            <mxPoint x="194.01535770855332" y="133.96035103875056" as="sourcePoint" />
            <mxPoint x="165.40479804646253" y="66.2656773979667" as="targetPoint" />
            <Array as="points">
              <mxPoint x="180.0932550158401" y="123.74228709297185" />
              <mxPoint x="168.5979408658929" y="107.13793318108146" />
              <mxPoint x="166.0434266103491" y="90.5335792691911" />
            </Array>
          </mxGeometry>
        </mxCell>
        <mxCell id="jZlvbW42aSFdG-7BeMvi-233" value="" style="verticalLabelPosition=bottom;verticalAlign=top;html=1;shape=mxgraph.basic.polygon;polyCoords=[[0.93,0.05],[0.93,0.05],[1,0.09],[1,0.68],[0.5,1],[0,0.68],[0,0.1],[0.08,0.05]];polyline=1;fillColor=none;strokeWidth=1.5;" parent="jZlvbW42aSFdG-7BeMvi-254" vertex="1">
          <mxGeometry x="41.00198420865108" y="5.004522476988364" width="110.26983113708947" height="110.26990585428635" as="geometry" />
        </mxCell>
        <mxCell id="jZlvbW42aSFdG-7BeMvi-251" value="" style="endArrow=none;html=1;rounded=0;strokeWidth=1.5;" parent="jZlvbW42aSFdG-7BeMvi-254" edge="1">
          <mxGeometry width="50" height="50" relative="1" as="geometry">
            <mxPoint x="165.35779498416042" y="4.446390526005601" as="sourcePoint" />
            <mxPoint x="165.35779498416042" y="66.2656773979667" as="targetPoint" />
          </mxGeometry>
        </mxCell>
        <mxCell id="jZlvbW42aSFdG-7BeMvi-244" value="" style="endArrow=none;html=1;rounded=0;strokeWidth=1.5;" parent="jZlvbW42aSFdG-7BeMvi-254" edge="1">
          <mxGeometry width="50" height="50" relative="1" as="geometry">
            <mxPoint x="28.099656810982054" y="5.787511418888997" as="sourcePoint" />
            <mxPoint x="28.099656810982054" y="67.54293539118902" as="targetPoint" />
          </mxGeometry>
        </mxCell>
        <mxCell id="jZlvbW42aSFdG-7BeMvi-253" value="" style="group" parent="jZlvbW42aSFdG-7BeMvi-254" vertex="1" connectable="0">
          <mxGeometry x="28.099656810982054" width="137.25813817317837" height="11.244164623635902" as="geometry" />
        </mxCell>
        <mxCell id="jZlvbW42aSFdG-7BeMvi-239" value="" style="endArrow=none;html=1;rounded=0;strokeWidth=1.5;" parent="jZlvbW42aSFdG-7BeMvi-253" edge="1">
          <mxGeometry width="50" height="50" relative="1" as="geometry">
            <mxPoint x="114.90034318901792" y="11" as="sourcePoint" />
            <mxPoint x="130.3291055549605" y="0.2171740382072217" as="targetPoint" />
          </mxGeometry>
        </mxCell>
        <mxCell id="jZlvbW42aSFdG-7BeMvi-240" value="" style="endArrow=none;html=1;rounded=0;strokeWidth=1.5;" parent="jZlvbW42aSFdG-7BeMvi-253" edge="1">
          <mxGeometry width="50" height="50" relative="1" as="geometry">
            <mxPoint x="21.900343189017917" y="11" as="sourcePoint" />
            <mxPoint x="7.929592992791127" y="1.3198730967501113" as="targetPoint" />
          </mxGeometry>
        </mxCell>
        <mxCell id="jZlvbW42aSFdG-7BeMvi-252" value="" style="endArrow=none;html=1;rounded=0;strokeWidth=1.5;" parent="jZlvbW42aSFdG-7BeMvi-253" edge="1">
          <mxGeometry width="50" height="50" relative="1" as="geometry">
            <mxPoint x="137.25813817317837" y="5.109031972889348" as="sourcePoint" />
            <mxPoint x="129.00296990496304" as="targetPoint" />
          </mxGeometry>
        </mxCell>
        <mxCell id="jZlvbW42aSFdG-7BeMvi-246" value="" style="endArrow=none;html=1;rounded=0;strokeWidth=1.5;" parent="jZlvbW42aSFdG-7BeMvi-253" edge="1">
          <mxGeometry width="50" height="50" relative="1" as="geometry">
            <mxPoint y="6.386289966111685" as="sourcePoint" />
            <mxPoint x="8.94079989440338" y="1.277257993222337" as="targetPoint" />
          </mxGeometry>
        </mxCell>
        <mxCell id="jZlvbW42aSFdG-7BeMvi-266" value="120&lt;strong&gt;°&lt;/strong&gt;" style="text;align=center;html=1;verticalAlign=middle;rounded=0;shadow=0;glass=0;labelBorderColor=none;labelBackgroundColor=none;whiteSpace=wrap;fontStyle=0;container=0;rotation=0;fontSize=11;" parent="jZlvbW42aSFdG-7BeMvi-268" vertex="1">
          <mxGeometry x="159.9773" y="139.7708" width="18.19" height="9.3" as="geometry" />
        </mxCell>
        <mxCell id="jZlvbW42aSFdG-7BeMvi-267" value="" style="verticalLabelPosition=bottom;verticalAlign=top;html=1;shape=mxgraph.basic.arc;startAngle=0.8860129297857114;endAngle=0.13591715429368187;rotation=-3;strokeWidth=1.5;" parent="jZlvbW42aSFdG-7BeMvi-268" vertex="1">
          <mxGeometry x="152.9773" y="152.7708" width="30" height="35" as="geometry" />
        </mxCell>
        <mxCell id="jZlvbW42aSFdG-7BeMvi-270" value="" style="group" parent="1" vertex="1" connectable="0">
          <mxGeometry x="21.653626772624104" y="-1023.62" width="396.5120093522658" height="259.2600000000001" as="geometry" />
        </mxCell>
        <mxCell id="jZlvbW42aSFdG-7BeMvi-269" value="&lt;font style=&quot;font-size: 9px;&quot;&gt;Case Back View&lt;/font&gt;" style="text;align=center;html=1;verticalAlign=middle;rounded=0;shadow=0;glass=0;labelBorderColor=none;labelBackgroundColor=none;whiteSpace=wrap;fontStyle=1;container=0;rotation=-90;fontSize=8;perimeterSpacing=1;" parent="jZlvbW42aSFdG-7BeMvi-270" vertex="1">
          <mxGeometry x="295.351312085265" y="110.36614311926598" width="163.78928444225843" height="38.53211009174312" as="geometry" />
        </mxCell>
        <mxCell id="K3vBRPoJTIptSZS2Vwr1-41" value="" style="rounded=1;whiteSpace=wrap;html=1;fillColor=none;strokeWidth=1.5;glass=0;shadow=0;perimeterSpacing=0;arcSize=7;container=0;" parent="jZlvbW42aSFdG-7BeMvi-270" vertex="1">
          <mxGeometry x="66.8257160557242" y="53.620000000000005" width="301.2719964099952" height="142.9" as="geometry" />
        </mxCell>
        <mxCell id="jZlvbW42aSFdG-7BeMvi-1" value="" style="rounded=1;whiteSpace=wrap;html=1;fillColor=none;strokeWidth=1.5;glass=0;shadow=0;perimeterSpacing=0;arcSize=0;container=0;" parent="jZlvbW42aSFdG-7BeMvi-270" vertex="1">
          <mxGeometry x="76.73637322737589" y="63.620000000000005" width="280.19" height="122" as="geometry" />
        </mxCell>
        <mxCell id="yudhTSWX78AsAPHQkicX-313" value="&lt;span style=&quot;font-weight: 400;&quot;&gt;(1)&lt;/span&gt;" style="text;align=center;html=1;verticalAlign=middle;rounded=0;shadow=0;glass=0;labelBorderColor=none;labelBackgroundColor=none;whiteSpace=wrap;fontStyle=1;container=0;rotation=0;fontSize=8;perimeterSpacing=1;" parent="jZlvbW42aSFdG-7BeMvi-270" vertex="1">
          <mxGeometry x="65.34907322737584" y="83.6182" width="12.55" height="9.7" as="geometry" />
        </mxCell>
        <mxCell id="K3vBRPoJTIptSZS2Vwr1-38" value="&lt;font style=&quot;font-size: 20px;&quot;&gt;Case Top View&lt;br&gt;&lt;/font&gt;" style="text;align=center;html=1;verticalAlign=middle;rounded=0;shadow=0;glass=0;labelBorderColor=none;labelBackgroundColor=none;whiteSpace=wrap;fontStyle=1;container=0;" parent="jZlvbW42aSFdG-7BeMvi-270" vertex="1">
          <mxGeometry x="81.82581545543187" width="270.00178919473797" height="38.26" as="geometry" />
        </mxCell>
        <mxCell id="K3vBRPoJTIptSZS2Vwr1-39" value="&lt;span style=&quot;font-weight: normal;&quot;&gt;&lt;font style=&quot;font-size: 20px;&quot;&gt;53.2 mm&lt;/font&gt;&lt;/span&gt;" style="text;align=center;html=1;verticalAlign=middle;rounded=0;shadow=0;glass=0;labelBorderColor=none;labelBackgroundColor=none;whiteSpace=wrap;fontStyle=1;container=0;" parent="jZlvbW42aSFdG-7BeMvi-270" vertex="1">
          <mxGeometry x="139.17900562802845" y="220.9985321100918" width="157.9056316811369" height="38.26146788990826" as="geometry" />
        </mxCell>
        <mxCell id="K3vBRPoJTIptSZS2Vwr1-40" value="" style="endArrow=classic;startArrow=classic;html=1;rounded=0;movable=1;resizable=1;rotatable=1;deletable=1;editable=1;locked=0;connectable=1;sourcePerimeterSpacing=0;strokeWidth=1.5;" parent="jZlvbW42aSFdG-7BeMvi-270" edge="1">
          <mxGeometry width="50" height="50" relative="1" as="geometry">
            <mxPoint x="67.18503380796727" y="215.99776758409791" as="sourcePoint" />
            <mxPoint x="366.9009165724222" y="215.99776758409791" as="targetPoint" />
          </mxGeometry>
        </mxCell>
        <mxCell id="K3vBRPoJTIptSZS2Vwr1-42" value="" style="endArrow=classic;startArrow=classic;html=1;rounded=0;movable=1;resizable=1;rotatable=1;deletable=1;editable=1;locked=0;connectable=1;strokeWidth=1.5;sourcePerimeterSpacing=0;" parent="jZlvbW42aSFdG-7BeMvi-270" edge="1">
          <mxGeometry width="50" height="50" relative="1" as="geometry">
            <mxPoint x="47.17998587126441" y="190.2582" as="sourcePoint" />
            <mxPoint x="47.16558577584068" y="59.879999999999995" as="targetPoint" />
          </mxGeometry>
        </mxCell>
        <mxCell id="K3vBRPoJTIptSZS2Vwr1-43" value="&lt;span style=&quot;font-weight: normal;&quot;&gt;&lt;font style=&quot;font-size: 20px;&quot;&gt;21.2 mm&lt;/font&gt;&lt;/span&gt;" style="text;align=center;html=1;verticalAlign=middle;rounded=0;shadow=0;glass=0;labelBorderColor=none;labelBackgroundColor=none;whiteSpace=wrap;fontStyle=1;direction=east;rotation=-90;container=0;" parent="jZlvbW42aSFdG-7BeMvi-270" vertex="1">
          <mxGeometry x="-59.82208189561429" y="102.19966360856267" width="157.9056316811369" height="38.26146788990826" as="geometry" />
        </mxCell>
        <mxCell id="muGByNrlq9L5XUzkivt8-3" value="" style="ellipse;whiteSpace=wrap;html=1;aspect=fixed;strokeWidth=1.5;fillColor=none;container=0;dashed=1;dashPattern=1 1;" parent="jZlvbW42aSFdG-7BeMvi-270" vertex="1">
          <mxGeometry x="339.1663732273759" y="73.62" width="12.66" height="12.66" as="geometry" />
        </mxCell>
        <mxCell id="muGByNrlq9L5XUzkivt8-96" value="" style="endArrow=classic;startArrow=classic;html=1;rounded=0;movable=1;resizable=1;rotatable=1;deletable=1;editable=1;locked=0;connectable=1;sourcePerimeterSpacing=0;strokeWidth=1;endSize=1;startSize=1;" parent="jZlvbW42aSFdG-7BeMvi-270" edge="1">
          <mxGeometry width="50" height="50" relative="1" as="geometry">
            <mxPoint x="209.3463732273759" y="63.620000000000005" as="sourcePoint" />
            <mxPoint x="209.24705982546593" y="53.620000000000005" as="targetPoint" />
          </mxGeometry>
        </mxCell>
        <mxCell id="muGByNrlq9L5XUzkivt8-97" value="&lt;span style=&quot;font-size: 10px;&quot;&gt;&lt;font style=&quot;font-size: 10px;&quot;&gt;1.6 mm&lt;/font&gt;&lt;/span&gt;" style="text;align=center;html=1;verticalAlign=middle;rounded=0;shadow=0;glass=0;labelBorderColor=none;labelBackgroundColor=none;whiteSpace=wrap;fontStyle=0;container=0;fontSize=10;rotation=0;" parent="jZlvbW42aSFdG-7BeMvi-270" vertex="1">
          <mxGeometry x="202.3498804308839" y="51.62319999999988" width="57.000377718889126" height="14.73" as="geometry" />
        </mxCell>
        <mxCell id="muGByNrlq9L5XUzkivt8-99" value="" style="endArrow=classic;startArrow=classic;html=1;rounded=0;movable=1;resizable=1;rotatable=1;deletable=1;editable=1;locked=0;connectable=1;sourcePerimeterSpacing=0;strokeWidth=1;endSize=3;startSize=3;" parent="jZlvbW42aSFdG-7BeMvi-270" edge="1">
          <mxGeometry width="50" height="50" relative="1" as="geometry">
            <mxPoint x="158.3463732273759" y="93.62" as="sourcePoint" />
            <mxPoint x="171.3463732273759" y="93.62" as="targetPoint" />
          </mxGeometry>
        </mxCell>
        <mxCell id="muGByNrlq9L5XUzkivt8-100" value="&lt;span style=&quot;font-size: 7px;&quot;&gt;&lt;font style=&quot;font-size: 7px;&quot;&gt;2 mm&lt;/font&gt;&lt;/span&gt;" style="text;align=center;html=1;verticalAlign=middle;rounded=0;shadow=0;glass=0;labelBorderColor=none;labelBackgroundColor=none;whiteSpace=wrap;fontStyle=0;container=0;fontSize=7;rotation=0;" parent="jZlvbW42aSFdG-7BeMvi-270" vertex="1">
          <mxGeometry x="136.18069550848676" y="95.07319999999993" width="57.000377718889126" height="14.73" as="geometry" />
        </mxCell>
        <mxCell id="jZlvbW42aSFdG-7BeMvi-2" value="" style="ellipse;whiteSpace=wrap;html=1;aspect=fixed;strokeWidth=1.5;fillColor=none;container=0;dashed=1;dashPattern=1 1;" parent="jZlvbW42aSFdG-7BeMvi-270" vertex="1">
          <mxGeometry x="339.1663732273759" y="161.62" width="12.66" height="12.66" as="geometry" />
        </mxCell>
        <mxCell id="jZlvbW42aSFdG-7BeMvi-3" value="" style="ellipse;whiteSpace=wrap;html=1;aspect=fixed;strokeWidth=1.5;fillColor=none;container=0;dashed=1;dashPattern=1 1;" parent="jZlvbW42aSFdG-7BeMvi-270" vertex="1">
          <mxGeometry x="158.3463732273759" y="73.62" width="12.66" height="12.66" as="geometry" />
        </mxCell>
        <mxCell id="jZlvbW42aSFdG-7BeMvi-4" value="" style="ellipse;whiteSpace=wrap;html=1;aspect=fixed;strokeWidth=1.5;fillColor=none;container=0;dashed=1;dashPattern=1 1;" parent="jZlvbW42aSFdG-7BeMvi-270" vertex="1">
          <mxGeometry x="158.3463732273759" y="161.62" width="12.66" height="12.66" as="geometry" />
        </mxCell>
        <mxCell id="jZlvbW42aSFdG-7BeMvi-5" value="" style="rounded=0;whiteSpace=wrap;html=1;strokeWidth=1.5;fillColor=none;" parent="jZlvbW42aSFdG-7BeMvi-270" vertex="1">
          <mxGeometry x="71.34637322737589" y="95.07000000000005" width="5.511799999999999" height="60" as="geometry" />
        </mxCell>
        <mxCell id="jZlvbW42aSFdG-7BeMvi-6" value="" style="endArrow=classic;startArrow=classic;html=1;rounded=0;movable=1;resizable=1;rotatable=1;deletable=1;editable=1;locked=0;connectable=1;sourcePerimeterSpacing=0;strokeWidth=1;endSize=1;startSize=1;" parent="jZlvbW42aSFdG-7BeMvi-270" edge="1">
          <mxGeometry width="50" height="50" relative="1" as="geometry">
            <mxPoint x="69.34637322737589" y="159.62" as="sourcePoint" />
            <mxPoint x="78.34637322737589" y="159.62" as="targetPoint" />
          </mxGeometry>
        </mxCell>
        <mxCell id="jZlvbW42aSFdG-7BeMvi-7" value="&lt;span style=&quot;font-size: 6px;&quot;&gt;&lt;font style=&quot;font-size: 6px;&quot;&gt;0.8 mm&lt;/font&gt;&lt;/span&gt;" style="text;align=center;html=1;verticalAlign=middle;rounded=0;shadow=0;glass=0;labelBorderColor=none;labelBackgroundColor=none;whiteSpace=wrap;fontStyle=0;container=0;fontSize=6;rotation=0;" parent="jZlvbW42aSFdG-7BeMvi-270" vertex="1">
          <mxGeometry x="63.34637322737589" y="161.62" width="29" height="9.73" as="geometry" />
        </mxCell>
        <mxCell id="jZlvbW42aSFdG-7BeMvi-9" value="" style="endArrow=classic;startArrow=classic;html=1;rounded=0;movable=1;resizable=1;rotatable=1;deletable=1;editable=1;locked=0;connectable=1;sourcePerimeterSpacing=0;strokeWidth=1;endSize=3;startSize=3;" parent="jZlvbW42aSFdG-7BeMvi-270" edge="1">
          <mxGeometry width="50" height="50" relative="1" as="geometry">
            <mxPoint x="83.34637322737589" y="153.62" as="sourcePoint" />
            <mxPoint x="83.34637322737589" y="96.62" as="targetPoint" />
          </mxGeometry>
        </mxCell>
        <mxCell id="jZlvbW42aSFdG-7BeMvi-10" value="&lt;span style=&quot;font-size: 7px;&quot;&gt;&lt;font style=&quot;font-size: 7px;&quot;&gt;9.16 mm&lt;/font&gt;&lt;/span&gt;" style="text;align=center;html=1;verticalAlign=middle;rounded=0;shadow=0;glass=0;labelBorderColor=none;labelBackgroundColor=none;whiteSpace=wrap;fontStyle=0;container=0;fontSize=7;rotation=-90;" parent="jZlvbW42aSFdG-7BeMvi-270" vertex="1">
          <mxGeometry x="76.73637322737589" y="121.65000000000009" width="30.45" height="6.84" as="geometry" />
        </mxCell>
      </root>
    </mxGraphModel>
  </diagram>
</mxfile>
